<?xml version="1.0" standalone="no"?>
<!DOCTYPE svg PUBLIC "-//W3C//DTD SVG 1.1//EN" "http://www.w3.org/Graphics/SVG/1.1/DTD/svg11.dtd">
<svg xmlns="http://www.w3.org/2000/svg"><metadata>This SVG WebFont was generated by YouWorkForThem.
Copyright (c) 2013 by International TypeFounders, Inc. All rights reserved.</metadata><defs><font horiz-adv-x="1173" id="ywftsvg"><font-face ascent="1638" bbox="-150 -621 2222 1816" cap-height="1366" descent="-410" font-family="" font-stretch="normal" font-weight="400" panose-1="2 0 5 0 0 0 0 0 0 0" underline-position="0" underline-thickness="0" unicode-range="U+000D-FB02" units-per-em="2048" x-height="901"/><missing-glyph d="M895 0h-768v1503h768v-1503zM256 1374v-1247h512v1247h-512z" horiz-adv-x="1024"/><glyph d="M895 0h-768v1503h768v-1503zM256 1374v-1247h512v1247h-512z" glyph-name=".notdef" horiz-adv-x="1024"/><glyph glyph-name="glyph1" horiz-adv-x="0"/><glyph glyph-name="glyph2" horiz-adv-x="681"/><glyph glyph-name="glyph3" horiz-adv-x="0"/><glyph glyph-name="glyph3" horiz-adv-x="0"/><glyph glyph-name="space" horiz-adv-x="409" unicode=" "/><glyph glyph-name="space" horiz-adv-x="409" unicode=" "/><glyph d="M188 1309l316 106q-22 -91 -31 -330l-24 -577l-154 -148l-55 682q-19 214 -52 267zM385 319l152 -172l-152 -170l-152 170z" glyph-name="exclam" horiz-adv-x="593" unicode="!"/><glyph d="M649 1366h176l-57 -416h-119v416zM348 1366h176l-57 -416h-119v416z" glyph-name="quotedbl" unicode="&quot;"/><glyph d="M848 1065h205l-17 -102h-205l-51 -287h205l-18 -103h-205l-53 -301h-109l53 301h-219l-53 -301h-109l54 301h-205l18 103h205l49 287h-205l19 102h205l53 301h108l-53 -301h219l54 301h108zM672 676l49 287h-217l-51 -287h219z" glyph-name="numbersign" unicode="#"/><glyph d="M1055 406q0 -424 -441 -429v-141h-84v144q-68 6 -176 23t-148 17t-79 -14v440q129 -371 403 -395v531q-246 53 -328 136t-83 271q0 400 403 400h8v167h84v-170h11l252 -20q63 0 112 23v-371q-76 152 -161 220t-214 77v-518l21 -4q250 -49 335 -124t85 -263zM530 821v494 q-207 -16 -206 -246q0 -111 43 -164q44 -51 163 -84zM850 322q0 110 -51 160t-185 77v-506q236 23 236 269z" glyph-name="dollar" unicode="$"/><glyph d="M823 1038q1 -200 -61 -278t-220 -78t-222 77q-62 77 -62 277t62 279q62 78 221 78q160 0 225 -84q57 -70 57 -271zM1130 1366h89l-586 -1366h-84zM1503 327.5q0 -200.5 -60 -277.5t-222 -77t-226 82q-57 70 -57 272t57 273q61 82 225 82t223 -77q60 -77 60 -277.5z M692 1036q0 172 -26 240q-29 59 -123 59t-125 -57q-29 -62 -29 -242t31 -239q27 -57 123 -58q96 0 123 62q26 63 26 235zM1372 327.5q0 180.5 -26 238.5t-122 58q-95 0 -126 -57q-29 -61 -29 -239t28 -238t125 -59q98 0 124 58t26 238.5z" glyph-name="percent" horiz-adv-x="1761" unicode="%"/><glyph d="M1190 811q0 -260 -98 -487l4 -9l51 -67q61 -82 122 -110t124 -29h12q-59 -55 -134 -91q-131 -62 -200 -16q-25 23 -104 117l-9 10q-126 -154 -372 -154t-385 111q-137 112 -137 350t71 336q72 98 250 123q-86 106 -86 217q0 76 39 140.5t102 93.5q94 41 269 40 q55 0 104 -4l92 -10l21 -2q31 0 67 12v-319q-89 143 -155 199t-143 57q-77 0 -124 -43t-47 -111q0 -100 92 -223l406 -534q33 72 33 186q0 205 -121 250l233 90q23 -45 23 -123zM303 500q0 -444 322 -445q186 1 278 144l-473 628l-31 -12q-96 -37 -96 -315z" glyph-name="ampersand" horiz-adv-x="1296" unicode="&amp;"/><glyph d="M500 1366h176l-58 -416h-118v416z" glyph-name="quotesingle" unicode="'"/><glyph d="M492 -350q-129 0 -246 83t-158 206q-76 234 -76 736q0 501 74 736q41 125 156 208t247 83q43 0 82 -10q-195 -55 -247 -205q-39 -109 -48 -242q-26 -322 -26 -500q2 -678 64 -851t259 -234q-47 -10 -81 -10z" glyph-name="parenleft" horiz-adv-x="587" unicode="("/><glyph d="M336 676q0 184 -4 248q-18 422 -68 566t-250 202q39 10 84 10q129 0 246 -83t158 -208q71 -227 71 -747t-69 -711q-41 -119 -121 -191q-125 -113 -287 -112q-33 0 -84 10q201 66 250 203q74 208 74 813z" glyph-name="parenright" horiz-adv-x="587" unicode=")"/><glyph d="M831 1239l43 -125l-219 -47l152 -166l-113 -78l-108 195l-117 -195l-109 84l150 160l-211 41l41 135l203 -98l-25 221h133l-26 -221z" glyph-name="asterisk" unicode="*"/><glyph d="M1075 541v-117h-430v-424h-117v424h-430v117h430v424h117v-424h430z" glyph-name="plus" unicode="+"/><glyph d="M414 158q0 -110 -66 -208q-66 -97 -172 -128q51 84 51 190t-53 195l203 123q37 -62 37 -172z" glyph-name="comma" horiz-adv-x="587" unicode=","/><glyph d="M86 596h469l-55 -127h-469z" glyph-name="hyphen" horiz-adv-x="587" unicode="-"/><glyph d="M86 596h469l-55 -127h-469z" glyph-name="hyphen" horiz-adv-x="587" unicode="­"/><glyph d="M293 317l149 -170l-149 -170l-150 170z" glyph-name="period" horiz-adv-x="587" unicode="."/><glyph d="M541 1460h112l-610 -1487h-111z" glyph-name="slash" horiz-adv-x="587" unicode="/"/><glyph d="M1153 683q0 -226 -26 -344t-91 -200q-130 -166 -450 -166t-449 166q-115 145 -114 531q1 229 25 350t89 207q129 166 447 166q469 0 542 -369q27 -115 27 -341zM911 682q0 375 -60 505t-264 130t-265 -131q-58 -117 -58 -502t58 -506q61 -131 265 -131t264 130t60 505z " glyph-name="zero" unicode="0"/><glyph d="M481 309v596q-1 135 -21 218t-102 114l357 180v-35l-4 -170v-903q0 -92 13 -173t93 -136h-442q45 30 65 58q40 54 41 251z" glyph-name="one" unicode="1"/><glyph d="M823 1010q0 305 -272 305q-244 0 -406 -295v369q29 -14 70 -15l375 19q238 0 362 -85t123 -293q0 -208 -166 -390q-78 -84 -323 -303l-170 -150l16 -2l162 -4q224 0 336 40t196 161l-6 -367h-1073q159 117 383 333t305 357q88 143 88 320z" glyph-name="two" unicode="2"/><glyph d="M252 1374l377 19q395 0 395 -314q0 -246 -256 -299q305 -34 305 -360q0 -236 -128 -341t-413 -106q-119 -1 -256 15t-163 16h-7l-6 358l9 -14q94 -166 176 -223q102 -76 233 -76q297 0 297 365q0 313 -256 313q-111 0 -190 -16l2 86q55 -6 92 -6q158 0 230.5 64.5 t72.5 203.5q0 260 -232 260t-384 -270v333q46 -8 102 -8z" glyph-name="three" unicode="3"/><glyph d="M930 383v-96q0 -98 15 -168t85 -119h-432q35 27 53 49q49 61 49 238v96h-639l-34 127q92 98 166 190l378 469q113 141 144 197h299q-66 -57 -75 -141t-9 -146v-542q119 2 217 43l-76 -197h-141zM700 528v625l-501 -625h501z" glyph-name="four" unicode="4"/><glyph d="M623 897q208 0 329 -113.5t121 -326.5q0 -485 -524 -486q-86 0 -143.5 8.5t-86.5 11.5t-83 9t-82 6t-54 -6l2 334q162 -285 414 -285q322 0 322 384t-293 384q-190 0 -312 -201l-112 84q10 43 16 138l13 190q12 190 12 255t-2 83h872l-63 -113q-18 -31 -41 -38t-97 -7 h-536l-29 -403q149 92 357 92z" glyph-name="five" unicode="5"/><glyph d="M641 1319q-199 0 -270 -154q-57 -123 -58 -311v-39q135 86 318 86q473 0 473 -457q0 -471 -516 -471q-287 0 -402 157t-114.5 533.5t123.5 553.5q125 174 393 174q76 -1 172 -11t162 -10t104 14v-346q-150 281 -385 281zM862 448q0 204 -61 296t-219 92t-217 -115 q-47 -90 -47 -285t49 -286q66 -119 225.5 -119t222.5 119q47 94 47 298z" glyph-name="six" unicode="6"/><glyph d="M84 1366h1008q-120 -206 -160 -270q-242 -393 -397 -750l-93 -213q-39 -92 -47 -133h-305q26 72 60 130q262 453 468 744l134 189l92 139l-13 2q-209 8 -213 8q-180 0 -321 -32q-121 -31 -213 -136v322z" glyph-name="seven" unicode="7"/><glyph d="M597 1393q476 0 476 -318q0 -105 -30 -161t-119 -117q-43 -29 -105 -52q166 -76 230 -153q65 -84 65 -211q0 -236 -170 -334q-129 -74 -354 -74q-530 0 -531 363q0 197 140 287q63 41 157 71q-236 86 -235 328q0 371 476 371zM862 1068q0 146 -78 204q-76 53 -190 53 q-252 0 -252 -229q0 -82 20 -123q39 -86 220 -142l131 -40q61 33 88 63q61 68 61 214zM877 322q0 144 -127 216t-293 113l-66 -33q-102 -49 -102 -253q0 -322 311 -322q277 0 277 279z" glyph-name="eight" unicode="8"/><glyph d="M1096 750q0 -455 -123 -617q-127 -158 -414 -158q-78 0 -168 9l-203 16q-41 0 -73 -12v360q147 -305 407 -305q174 0 254 117q43 66 55 133q20 123 21 274v17q-125 -90 -320 -90q-453 0 -452 440q0 459 500 459q303 0 419 -158q97 -129 97 -485zM852 930q0 98 -12 182 q-35 219 -260 219q-137 0 -199 -86.5t-62 -288.5t62 -297q63 -94 203 -94q140 1 204 89t64 276z" glyph-name="nine" unicode="9"/><glyph d="M293 934l149 -168l-149 -170l-150 170zM293 317l149 -170l-149 -170l-150 170z" glyph-name="colon" horiz-adv-x="587" unicode=":"/><glyph d="M293 934l149 -168l-149 -170l-150 170zM434 158q0 -110 -66 -208q-66 -97 -173 -128q53 94 53 194t-55 191l204 123q37 -62 37 -172z" glyph-name="semicolon" horiz-adv-x="587" unicode=";"/><glyph d="M274 682l99 -96l-21 -19l-96 97l-96 -97l-21 19l99 96l-99 96l21 21l96 -97l96 97l21 -21z" glyph-name="less" horiz-adv-x="512" unicode="&lt;"/><glyph d="M1075 686v-115h-977v115h977zM1075 395v-114h-977v114h977z" glyph-name="equal" unicode="="/><glyph d="M274 682l99 -96l-21 -19l-96 97l-96 -97l-21 19l99 96l-99 96l21 21l96 -97l96 97l21 -21z" glyph-name="greater" horiz-adv-x="512" unicode=">"/><glyph d="M1020 1110q0 -170 -170 -287l-166 -114q-129 -90 -129 -148q0 -51 88 -51h12l-237 -133q-45 39 -45 88q0 76 125 201l116 116q158 158 158 320q0 219 -223 219q-258 0 -412 -266v338q104 -38 307 -11q68 6 138 7q438 0 438 -279zM535 317l149 -170l-149 -170l-150 170z " glyph-name="question" horiz-adv-x="1071" unicode="?"/><glyph d="M1446 735q0 -197 -94 -325q-96 -125 -244 -125t-211 143q-106 -121 -242 -121q-104 0 -164.5 65.5t-60.5 180.5q0 203 119 355t276 151q74 0 142 -43l6 43h106l-75 -508q-6 -39 -7 -68q1 -106 109 -106t176 98t68 254q0 260 -159 425t-417 165t-430 -176 q-170 -180 -170 -460t177 -460t458 -180q207 0 377 131l41 -59q-88 -74 -154 -103q-129 -59 -276 -59q-311 0 -520 209t-209 522t206 521t504 208q299 0 483.5 -190.5t184.5 -487.5zM539 561q0 -154 127 -153q90 0 165 82t89 198l30 227q-59 51 -125 52q-111 0 -199 -126 t-87 -280z" glyph-name="at" horiz-adv-x="1507" unicode="@"/><glyph d="M975 98q0 65 -31 152l-117 321h-450l-113 -297q-39 -98 -39 -166t35 -108h-307q121 97 217 348l254 637q63 159 63 237t-53 144h344q4 -18 31 -98l70 -174l278 -738q98 -260 213 -356h-428q33 33 33 98zM406 647h389l-195 516z" glyph-name="A" horiz-adv-x="1323" unicode="A"/><glyph d="M1231 395q0 -395 -412 -395h-751q39 29 66.5 66.5t27.5 226.5v778q0 103 -11 169t-83 126h704q203 0 289 -86t86 -240q0 -250 -244 -301l25 -4q168 -27 235.5 -111t67.5 -229zM883 1036q0 152 -75 210t-263 59q-129 0 -144 -45q-6 -18 -6 -52v-442h244q137 0 190.5 59 t53.5 211zM963 387q0 166 -68 233.5t-250 67.5h-250v-377q0 -94 2 -106q10 -66 45 -94q55 -49 210 -49t233 79.5t78 245.5z" glyph-name="B" horiz-adv-x="1261" unicode="B"/><glyph d="M1225 242q-1 -119 -143 -194t-367 -75q-317 0 -478 157t-161 545t141 554q145 164 479 164q126 1 230 -11t155 -12t101 21v-416l-101 160q-126 184 -383 184q-204 0 -288 -137q-84 -138 -84 -460t106 -462q110 -137 364 -137t427 131l2 -8v-4z" glyph-name="C" horiz-adv-x="1230" unicode="C"/><glyph d="M762 1366q543 0 543 -637q0 -352 -123 -536q-125 -193 -449 -193h-665q45 38 60 58q34 46 34 235v778q0 103 -11 169t-83 126h694zM1059 690q0 314 -86 459q-53 86 -145 119t-267 32q-63 0 -108 -8q-55 -16 -56 -86l-2 -98l2 -854q4 -102 33 -135q47 -51 209 -51 q246 0 330 147q90 161 90 475z" glyph-name="D" horiz-adv-x="1378" unicode="D"/><glyph d="M162 293v778q0 103 -11 169t-83 126h1009l8 -268q-158 207 -475 200l-108 -2q-70 -4 -82 -16q-25 -23 -25 -152v-356h25q33 0 55 -2h49q172 0 260 24t177 97v-287q-63 41 -115 60q-100 37 -299 36h-27l-125 -2v-364q0 -41 4 -94q2 -90 39 -123q56 -51 228 -51t299 84 q98 63 196 208l-51 -358h-1042q39 29 66.5 66.5t27.5 226.5z" glyph-name="E" horiz-adv-x="1187" unicode="E"/><glyph d="M1085 1366v-279q-150 217 -475 211l-108 -2q-70 -4 -82 -16q-25 -23 -25 -152v-360l31 -2h119q160 0 249 24t167 87v-287q-63 45 -107 63q-113 41 -309 41h-25l-96 -2l-29 2v-401q1 -100 13 -170t81 -123h-421q39 29 66.5 66.5t27.5 226.5v778q0 103 -11 169t-83 126 h1017z" glyph-name="F" horiz-adv-x="1089" unicode="F"/><glyph d="M1237 309v-319q-68 12 -124 12q-55 0 -207 -14t-244 -15q-318 0 -452 155t-134 546q0 227 37 356t129 219q145 143 438 144q80 1 206 -11t190 -12t118 19v-355q-89 148 -196 216q-106 67 -254 67t-212 -33q-74 -35 -126 -135q-80 -149 -80 -475t77 -465q90 -158 324 -158 q145 0 209.5 38t64.5 124v96q0 113 -11 177t-83 116h426q-79 -54 -84 -119q-12 -86 -12 -174z" glyph-name="G" horiz-adv-x="1349" unicode="G"/><glyph d="M967 692h-572v-399q0 -92 13 -176q10 -56 81 -117h-421q39 29 66.5 66.5t27.5 226.5v778q0 101 -10 167t-84 128h421q-14 -10 -55 -55q-37 -61 -39 -240v-311h572v311q-1 101 -11 167t-84 128h422q-70 -53 -82 -124t-12 -171v-778q0 -102 11 -170t83 -123h-422 q39 29 66 65t29 228v399z" glyph-name="H" horiz-adv-x="1361" unicode="H"/><glyph d="M164 293v778q0 99 -10 169t-86 126h428q-38 -28 -58 -54q-36 -44 -37 -241v-778q0 -121 11 -174q8 -64 84 -119h-428q43 30 60 54q36 50 36 239z" glyph-name="I" horiz-adv-x="565" unicode="I"/><glyph d="M389 1071v-764q0 -115 -6 -178q-30 -318 -244 -426q-89 -47 -153 -47t-103 27q98 27 172 133q100 143 101 510v745q0 100 -18 171t-83 124h430q-37 -33 -53 -55q-43 -68 -43 -240z" glyph-name="J" horiz-adv-x="552" unicode="J"/><glyph d="M401 293q0 -121 11 -174q8 -63 84 -119h-428q43 30 60 54q36 50 36 239v778q0 99 -10 169t-86 126h428q-38 -28 -58 -54q-36 -44 -37 -241v-305l371 340q115 102 115 190q0 43 -21 70h410q-153 -87 -338 -252l-356 -315l538 -600q117 -131 254 -199h-403l-570 668v-375z " glyph-name="K" horiz-adv-x="1318" unicode="K"/><glyph d="M164 293v778q0 99 -10 169t-86 126h428q-54 -43 -72 -79t-21 -124l-4 -92v-747q0 -139 15 -174q29 -78 210.5 -78t305.5 68t235 227l-55 -367h-1042q43 30 60 54q36 50 36 239z" glyph-name="L" horiz-adv-x="1148" unicode="L"/><glyph d="M1337 170q0 12 -8 106l-94 865l-442 -1164h-43l-428 1164l-97 -842q-10 -74 -10 -161t51 -138h-272q91 78 141 446l66 512q14 102 14 175q0 154 -86 233h369l346 -969l364 969h346q-82 -70 -81 -221q0 -31 10 -133l76 -680q30 -262 120 -332h-397q55 57 55 170z" glyph-name="M" horiz-adv-x="1693" unicode="M"/><glyph d="M1217 1071v-1071h-189l-772 1114v-821q0 -97 10 -167t86 -126h-284q43 30 60 54q36 50 36 239v778q0 99 -10 169t-86 126h309l747 -1079v784q0 100 -10 170t-86 125h285q-74 -51 -85 -123t-11 -172z" glyph-name="N" horiz-adv-x="1380" unicode="N"/><glyph d="M1309 683q0 -249 -31 -369t-115 -197q-156 -143 -471 -143.5t-471 143.5q-84 78 -114.5 194.5t-30.5 364.5t30 371t115 202q152 143 469 143t473 -143q84 -73 115 -195t31 -371zM1059 682q0 211 -4 246q-12 141 -60 233q-41 74 -123 116t-180 42t-182 -43t-126 -125 q-42 -81 -50 -185t-8 -281t4 -239q12 -158 56 -236t125 -120q81 -43 180 -43t181 42t123 116q47 92 60 233q4 33 4 244z" glyph-name="O" horiz-adv-x="1384" unicode="O"/><glyph d="M766 1366q240 0 331 -89t91 -296t-105 -299q-102 -94 -348 -94h-336v-295q1 -104 13 -172t84 -121h-428q43 30 60 54q36 50 36 239v778q0 99 -10 169t-86 126h698zM942 983q0 233 -121 289q-51 24 -205 24t-182 -6q-29 -6 -31 -28q-4 -8 -4 -99v-508h263q152 0 216 77 t64 251z" glyph-name="P" horiz-adv-x="1228" unicode="P"/><glyph d="M1602 -268q49 0 88 6q-74 -98 -216 -98t-292 47q-152 47 -336 153t-221 119q-37 12 -123 33q-184 39 -281 129q-84 81 -115 199q-30 118 -30 366t30.5 366.5t114.5 196.5q158 143 472 143t470 -143q84 -77 115 -195t31 -356q-1 -238 -23 -351q-22 -112 -90 -187 q-109 -125 -270 -158q378 -270 676 -270zM1059 687q0 210 -4 245q-12 135 -60 229q-84 158 -304 158t-302 -160q-47 -89 -55 -193t-8 -278t8 -284t52 -189q44 -78 125 -121t180 -43t183 43t126 125t55 225q4 33 4 243z" glyph-name="Q" horiz-adv-x="1394" unicode="Q"/><glyph d="M449 682h-48v-389q0 -121 11 -174q8 -63 84 -119h-428q43 30 60 54q36 50 36 239v778q0 99 -10 169t-86 126h637q231 0 335 -74t103 -260q0 -324 -361 -348l289 -367q182 -231 344 -317h-385l-428 563q-58 79 -82 99t-71 20zM895 1024q0 152 -68 215q-45 41 -105 48 t-169 7h-92q-59 -6 -60 -51v-491h226q143 0 207 59q61 61 61 213z" glyph-name="R" horiz-adv-x="1359" unicode="R"/><glyph d="M1096 410q0 -434 -516 -435q-102 0 -189 13l-143 20q-78 8 -112 8t-73 -14l-4 440q4 -10 13 -22l61 -119q35 -63 96 -127q129 -131 326 -131q315 0 315 281q0 115 -55 159q-37 31 -92 49t-269 68t-292 107q-106 75 -106 289t116 305q117 91 358 92q55 0 129 -7l99 -8 q74 -6 154 -6t114 21v-371l-8 16q-141 283 -457 283q-145 0 -211.5 -62.5t-66.5 -195.5q-1 -133 73 -182t336 -107t340 -149q64 -76 64 -215z" glyph-name="S" horiz-adv-x="1142" unicode="S"/><glyph d="M733 1274v-981q-1 -100 13 -170t85 -123h-428q43 30 61 54q35 46 36 239v981l-19 -2q-238 -3 -399 -82l-123 -68l115 244h1229l-175 -231q-29 53 -63 79q-84 59 -322 60h-10z" glyph-name="T" horiz-adv-x="1257" unicode="T"/><glyph d="M1235 1071v-614q0 -135 -24 -216q-79 -266 -506 -266q-322 0 -451 129q-63 68 -82 164q-8 70 -8 189v614q0 99 -10 169t-86 126h426q-42 -32 -60 -56q-33 -44 -35 -239v-579q0 -205 43 -285q74 -141 322 -141t326 137q45 82 45 289v579q-1 100 -13 171t-84 124h293 q-74 -53 -85 -124t-11 -171z" glyph-name="U" horiz-adv-x="1378" unicode="U"/><glyph d="M365 1236q0 -83 71 -269l285 -736l262 701q63 166 63 268t-61 166h346q-100 -102 -241 -467l-349 -899h-186l-354 922q-87 223 -137 312t-105 132h453q-47 -47 -47 -130z" glyph-name="V" horiz-adv-x="1290" unicode="V"/><glyph d="M891 1203q0 91 -70 163h393q-47 -64 -47 -130t47 -218l234 -742l235 709q89 268 -34 381h338q-51 -51 -96 -147t-122 -310l-299 -909h-172l-325 1001l-318 -1001h-176l-334 1036q-70 219 -186 330h455q-56 -68 -56 -138t41 -208l230 -744l235 754q27 82 27 173z" glyph-name="W" horiz-adv-x="1945" unicode="W"/><glyph d="M905 102q0 55 -67 148l-222 305l-202 -303q-115 -170 -6 -252h-416q170 98 344 340l219 301l-346 471q-125 166 -236 254h473q-39 -43 -38 -76q0 -61 86 -178l217 -293l204 289q49 68 49 138t-53 120h394q-139 -102 -291 -307l-240 -324l307 -424q158 -218 305 -311h-522 q41 47 41 102z" glyph-name="X" horiz-adv-x="1345" unicode="X"/><glyph d="M778 293q0 -96 12 -168t84 -125h-425q39 28 58 54q34 46 36 239v301l-373 559q-76 113 -197 213h473q-39 -55 -38 -90q0 -66 63 -166l258 -405l229 360q70 109 70 179t-51 122h369q-69 -46 -98.5 -88t-71.5 -95q-42 -54 -80 -110l-318 -479v-301z" glyph-name="Y" horiz-adv-x="1316" unicode="Y"/><glyph d="M586 72q200 0 346 64t248 255l-11 -391h-1183l868 1294h-285q-197 0 -302 -55t-212 -211l8 338h1133l-870 -1294h260z" glyph-name="Z" horiz-adv-x="1222" unicode="Z"/><glyph d="M522 -276v-66h-456v2048h456v-64h-231v-1918h231z" glyph-name="bracketleft" horiz-adv-x="587" unicode="["/><glyph d="M47 1460l606 -1487h-110l-611 1487h115z" glyph-name="backslash" horiz-adv-x="587" unicode="\"/><glyph d="M522 1706v-2048h-456v66h231v1918h-231v64h456z" glyph-name="bracketright" horiz-adv-x="587" unicode="]"/><glyph d="M274 682l99 -96l-21 -19l-96 97l-96 -97l-21 19l99 96l-99 96l21 21l96 -97l96 97l21 -21z" glyph-name="asciicircum" horiz-adv-x="512" unicode="^"/><glyph d="M1176 -164v-117h-1176v117h1176z" glyph-name="underscore" unicode="_"/><glyph d="M227 1309l164 -262h-125l-239 262h200z" glyph-name="grave" horiz-adv-x="417" unicode="`"/><glyph d="M172 903q42 0 92 6l96 13q49 6 134 6q174 0 244 -53t69 -191v-340l2 -74v-4l4 -123q3 -80 66 -143h-265l-10 92q-104 -119 -301 -119q-287 0 -287 209q0 117 71 188q71 70 257 112t220 77t34 129t-38 137t-130 43q-217 0 -340 -215v258q40 -8 82 -8zM600 305v195 q-33 -16 -102 -39q-131 -37 -198 -85t-67 -138q-1 -90 45 -141q46 -50 106 -50t113.5 28.5t80.5 82.5q22 55 22 147z" glyph-name="a" horiz-adv-x="925" unicode="a"/><glyph d="M336 1460v-8l-6 -106l-4 -113v-381q116 76 282 76t260 -94q109 -105 109 -369q1 -264 -101 -378t-305 -114q-100 1 -212 29q-113 28 -151 28t-89 -38v1093q0 131 -18.5 192.5t-65.5 96.5zM748 452q0 224 -37 310q-45 106 -176.5 106t-176.5 -106q-34 -82 -34 -307 t34 -314q42 -109 174 -109t179 109q37 87 37 311z" glyph-name="b" horiz-adv-x="1036" unicode="b"/><glyph d="M535 -27q-252 0 -373 127q-102 102 -103 349q0 479 414 479q70 0 131 -6l101 -11q9 -2 49 -2t71 15v-285l-61 84q-106 143 -244 143t-194 -85t-56 -289t74 -300q74 -98 226 -98t292 72l-2 -10q-29 -94 -104 -136q-88 -47 -221 -47z" glyph-name="c" horiz-adv-x="862" unicode="c"/><glyph d="M717 0v82q-84 -109 -282 -109t-287 112.5t-89 368.5t109 367q100 106 291 107q139 0 252 -64v221q0 221 -86 289l305 86q-10 -86 -10 -223v-852q0 -127 6 -223t67 -162h-276zM711 464q1 210 -21 274t-71.5 95t-112.5 31q-119 0 -168 -96q-51 -90 -51 -305t47 -319 t176 -103q63 0 112.5 34.5t69.5 106.5t19 282z" glyph-name="d" horiz-adv-x="1034" unicode="d"/><glyph d="M281 541v-9q0 -211 61 -309q82 -133 264 -133q131 0 285 76q-25 -72 -55 -107q-80 -86 -304 -86t-348.5 121t-124.5 352.5t113 356.5t318 125t309 -103q88 -85 100 -284h-618zM657 672q0 193 -172 192q-178 0 -200 -264v-4h274q61 0 79 16t19 60z" glyph-name="e" horiz-adv-x="940" unicode="e"/><glyph d="M620.5 1452q38.5 0 69.5 8v-250q-104 193 -227 193q-82 0 -107 -64q-14 -31 -14 -168v-270h82q109 0 176 8l-47 -90q-92 16 -164 17h-47v-451q0 -166 4 -221q2 -92 68 -164h-357q68 70 71 174t3 211v451h-127l33 65h94v240q0 137 9 173t57 79q74 68 217 67l88 -2 q80 -6 118.5 -6z" glyph-name="f" horiz-adv-x="540" unicode="f"/><glyph d="M892.5 813q-52.5 0 -99.5 -10q55 -78 55 -201q0 -164 -92 -242q-39 -31 -119 -67l-125 -53q-113 -49 -113 -86q0 -43 123 -84q229 -74 365 -156q106 -63 106 -168q0 -141 -143 -238q-144 -96 -346 -96t-348 83t-146 196q0 55 50 114t114 91t100 57q0 2 7 8l-23 12 q-4 2 -20.5 11.5t-28.5 15.5q-80 41 -80 92t98 90l125 51l76 39l16 7h-12q-373 0 -373 313q0 336 392 336q188 0 282 -70q94 76 219 76q48 0 95 -16l-72 -115q-30 10 -82.5 10zM449 868q-164 0 -164 -266q1 -266 167 -266t166 266t-169 266zM819 -358q0 96 -117 153 q-159 81 -352 133q-66 -25 -110 -83t-43 -124q1 -106 107 -178q106 -71 239 -71t204.5 47t71.5 123z" glyph-name="g" horiz-adv-x="927" unicode="g"/><glyph d="M702 385v213q0 264 -165 264q-117 0 -166 -98q-35 -74 -35 -227v-152q0 -139 5 -230t69 -155h-357q61 68 67 144t5 241v700q0 131 -18.5 192.5t-65.5 96.5l303 86q-8 -127 -8 -227v-406q113 100 278 101q57 0 128 -18t113 -58q42 -41 50 -119q6 -33 6 -137v-211 q1 -97 7 -207t67 -178h-356q39 41 51 74q22 52 22 311z" glyph-name="h" horiz-adv-x="1040" unicode="h"/><glyph d="M219 1354l150 -166l-150 -168l-149 168zM133 385v158q0 101 -14 175t-72 116l305 90q-10 -66 -10 -234v-305q0 -127 6 -222t68 -163h-357q35 37 51 71q24 52 23 314z" glyph-name="i" horiz-adv-x="471" unicode="i"/><glyph d="M215 1354l150 -166l-150 -168l-152 168zM338 690v-710q0 -168 -25 -293t-130 -216t-232 -92q-53 0 -101 54q202 23 252 215q24 94 25 284v611q1 129 -19 195t-65 96l303 90q-8 -115 -8 -234z" glyph-name="j" horiz-adv-x="473" unicode="j"/><glyph d="M336 383q0 -137 5 -228t69 -155h-357q61 68 67 144t5 241v700q0 131 -18.5 192.5t-65.5 96.5l303 86q-8 -127 -8 -227v-727l225 215q78 74 78 111t-33 69h352l-22 -10q-123 -55 -248 -168l-205 -182l322 -351q125 -135 231 -190h-317l-383 418v-35z" glyph-name="k" horiz-adv-x="991" unicode="k"/><glyph d="M133 385v700q0 102 -14 176t-72 113l305 86q-10 -68 -10 -227v-848q0 -127 6 -222t68 -163h-357q35 37 51 71q24 52 23 314z" glyph-name="l" horiz-adv-x="471" unicode="l"/><glyph d="M1229 610q0 113 -17 158q-35 90 -132 90t-148 -80q-37 -57 -37 -205v-262q0 -143 4 -164q12 -94 64 -147h-347q32 31 50 79t18 232v258q0 160 -27 213q-37 76 -135 76t-143 -82q-29 -51 -29 -186v-279q0 -184 18 -232t50 -79h-352q63 68 68 174t5 211v160q0 227 -84 289 l289 90l-4 -93q96 97 262 97t264 -107q125 107 283 107t235 -86q43 -49 52 -109q4 -14 4 -119v-229q0 -123 6 -220t67 -165h-352q35 37 51 79t17 232v299z" glyph-name="m" horiz-adv-x="1568" unicode="m"/><glyph d="M717 385v213q0 264 -166 264q-117 0 -166 -98q-35 -74 -35 -227v-152q0 -166 4 -221q2 -92 68 -164h-356q63 68 68 174t5 211v160q0 129 -18.5 190.5t-65.5 100.5l289 88l-4 -111q94 115 274 115t252 -74q43 -43 56 -121q4 -45 4 -137v-211q0 -129 6 -225t67 -160h-356 q33 41 53 87t21 298z" glyph-name="n" horiz-adv-x="1054" unicode="n"/><glyph d="M975 450.5q0 -247.5 -110.5 -362.5t-347.5 -115t-347.5 114t-110.5 377t131 370q110 94 338 94t337.5 -115t109.5 -362.5zM741 450.5q0 233.5 -51 323.5q-49 94 -173 94t-175 -92t-51 -324t50 -325q50 -94 175 -94t174 94q51 90 51 323.5z" glyph-name="o" horiz-adv-x="1034" unicode="o"/><glyph d="M999 446q0 -254 -98 -363t-307 -110q-145 0 -246 70l-4 -238v-24q2 -14 2 -37l4 -147q2 -92 68 -164h-357q35 37 51 71q24 51 23 314v665q0 172 -18 240t-68 104l279 93l2 -91q130 99 310 99t270 -114t89 -368zM770 453q0 416 -211 415q-117 0 -170 -96q-41 -76 -41 -324 t39 -319q49 -96 168 -96t166 96q49 105 49 324z" glyph-name="p" horiz-adv-x="1056" unicode="p"/><glyph d="M59 471q0 457 402 457q95 0 199 -28t143 -28t76 41h45v-1095q0 -98 6 -208t67 -177h-362q37 41 46 55t21 61q12 46 13 269v260q-109 -104 -271 -105q-385 0 -385 498zM715 448q0 204 -35 304q-39 112 -166 112t-176 -92t-49 -315t51 -320q53 -96 174 -96q121 -1 161 101 t40 306z" glyph-name="q" horiz-adv-x="1048" unicode="q"/><glyph d="M514 813q-78 0 -121 -77t-43 -214v-137q0 -166 4 -221q2 -92 68 -164h-356q63 68 68 174t5 211v158q0 129 -18.5 192.5t-65.5 98.5l285 90l-4 -166q102 170 270 170q61 0 96 -10v-263q-92 158 -188 158z" glyph-name="r" horiz-adv-x="684" unicode="r"/><glyph d="M770 261q0 -132 -89 -210t-251 -78q-52 1 -154 13t-139 12t-71 -14l-7 321l9 -18q63 -143 143 -201t199 -59q172 0 172 153q0 74 -37 113q-41 39 -137 59q-209 47 -273 92q-88 61 -88 201q0 283 332 283q55 0 139 -8t119 -8q36 0 65 14v-267q-116 215 -290 215t-174 -157 q0 -123 157 -158q129 -29 221 -55q55 -20 89 -51q65 -60 65 -192z" glyph-name="s" horiz-adv-x="811" unicode="s"/><glyph d="M342 836v-490q0 -156 40 -203t116 -47t137 23q-18 -59 -37 -82q-53 -59 -206 -59t-214 88q-27 41 -37 79q-6 39 -6 166v525h-129l33 65h96v92q0 82 -39 133l248 91v-17l-2 -57v-242h123q108 0 176 8l-45 -90q-92 16 -166 17h-88z" glyph-name="t" horiz-adv-x="614" unicode="t"/><glyph d="M125 315v228q-1 129 -19 193t-65 98l303 90q-8 -127 -8 -234v-348q0 -143 12 -186q31 -102 160 -103q84 0 144 55t61 252v183q0 223 -86 291l305 90q-10 -82 -10 -234v-305q0 -123 6 -221t67 -164h-272l-2 82q-49 -43 -72 -55q-93 -53 -239 -53q-246 -1 -279 196 q-6 41 -6 145z" glyph-name="u" horiz-adv-x="1050" unicode="u"/><glyph d="M659 901h256q-4 -6 -4 -12q-23 -49 -50 -117t-40.5 -97t-25.5 -61l-240 -614h-168q-6 53 -55 176l-148 354q-102 244 -198 291l278 99l279 -742l125 322q54 142 54 240t-63 161z" glyph-name="v" horiz-adv-x="901" unicode="v"/><glyph d="M1239 742q0 96 -59 159h258q-23 -70 -65 -160q-42 -91 -85 -206l-211 -535h-149l-199 573l-207 -573h-145l-193 516q-30 85 -98 205q-47 74 -100 102l274 97l258 -695l103 293q39 117 38 172q0 92 -75 144l250 86l243 -701l115 303q47 124 47 220z" glyph-name="w" horiz-adv-x="1423" unicode="w"/><glyph d="M582 73q0 40 -56 120l-108 157l-68 -86q-94 -119 -94 -201q0 -35 23 -63h-304q47 35 101 83t157 167l140 164l-207 278q-32 42 -98 112t-103 97h379q-6 -12 -6 -41q0 -30 7 -58t67 -108l90 -125l78 109q55 76 55 133t-31 90h305q-109 -68 -227 -219l-135 -176l231 -313 q105 -141 191 -193h-420q33 33 33 73z" glyph-name="x" horiz-adv-x="913" unicode="x"/><glyph d="M100 -592q-130 0 -161 10q193 77 327 232q133 154 133 264q0 37 -30 121l-166 444q-70 163 -94 205q-49 88 -121 135l282 101l275 -783l143 338q124 296 -10 426h301l-596 -1300q-61 -123 -113 -160q-40 -33 -170 -33z" glyph-name="y" horiz-adv-x="964" unicode="y"/><glyph d="M63 901h801l-585 -846h157q158 0 242 48t172 173l-10 -276h-854l587 842q-23 4 -88 4q-164 0 -254 -43q-88 -47 -168 -166v264z" glyph-name="z" horiz-adv-x="890" unicode="z"/><glyph d="M219 688q223 -91 223 -353q0 -130 -22 -257t-21 -180q0 -175 199 -187v-61l-53 -2q-356 0 -357 272q0 38 22 194t21 264q1 108 -37 179q-38 72 -133 96v72q168 37 168 265q-1 106 -21 256t-20 190q0 276 363 276h47v-63q-199 -12 -199 -189q-1 -59 21 -188 q22 -130 22 -250t-51 -199q-47 -78 -172 -135z" glyph-name="braceleft" horiz-adv-x="569" unicode="{"/><glyph d="M352 1419v-1474h-116v1474h116z" glyph-name="bar" horiz-adv-x="587" unicode="|"/><glyph d="M508 653q-170 -47 -170 -275q0 -108 22 -264t21 -194q0 -272 -354 -272l-54 2v61q199 12 199 187q0 58 -22 178t-23 254q0 134 51 221q53 88 172 137q-125 55 -174 134.5t-49 209.5q1 130 23 254t22 174q0 176 -199 189v63h45q362 0 363 -276q-1 -39 -21 -179t-20 -259 t39 -186t129 -87v-72z" glyph-name="braceright" horiz-adv-x="569" unicode="}"/><glyph d="M274 682l99 -96l-21 -19l-96 97l-96 -97l-21 19l99 96l-99 96l21 21l96 -97l96 97l21 -21z" glyph-name="asciitilde" horiz-adv-x="512" unicode="~"/><glyph d="M209 969l151 -172l-151 -170l-150 170zM406 -362l-316 -109q24 86 33 332l22 577l156 146l55 -680q15 -202 50 -266z" glyph-name="exclamdown" horiz-adv-x="528" unicode="¡"/><glyph d="M676 250h-84v194q-211 14 -308 126q-98 112 -98 348t100 350q100 112 306 118v164h84v-164l67 -6l88 -10h37q57 0 84 12v-284l-6 12q-72 109 -129 156t-141 59v-760q10 -4 37 -4q135 0 276 74q-8 -88 -93 -140t-220 -53v-192zM397 971q1 -178 45 -266t150 -123v745 q-102 -10 -148.5 -94t-46.5 -262z" glyph-name="cent" unicode="¢"/><glyph d="M184 1020q0 131 80 227q117 139 371 139q73 0 179 -11t152 -11t97 20v-333q-129 274 -410 274q-121 0 -189.5 -62.5t-68.5 -170.5v-31q6 -47 23 -107l37 -102l30 -94h473l-47 -82h-409q8 -41 8 -92q0 -225 -168 -426q109 -20 291 -20t278 39q96 40 168 136l-2 -313h-983 q190 234 191 516q0 102 -19 160h-129l33 82h74l-37 108q-23 68 -23 154z" glyph-name="sterling" unicode="£"/><glyph d="M769 197q-185 0 -316 102l-117 -117l-90 92l116 117q-104 135 -104 318t104 305l-116 114l94 95l115 -117q127 108 311 108t311 -108l115 117l92 -93l-117 -116q113 -128 113 -308t-113 -315l117 -117l-90 -92l-121 121q-119 -106 -304 -106zM1108 702q0 148 -101 246 t-239 98t-240 -98t-102 -244t100 -246t240 -100t240 98q102 98 102 246z" glyph-name="currency" horiz-adv-x="1536" unicode="¤"/><glyph d="M979 688v-84h-291l-6 -41v-65h297v-82h-297v-123q0 -113 9 -174t67 -119h-340q37 34 49 56q27 48 29 237v123h-301v82h301v65l-9 41h-292v84h249l-249 465q-59 115 -156 213h379q-33 -52 -33 -104t51 -152l207 -405l182 360q57 113 57 179t-40 122h295q-45 -39 -84 -98 l-92 -152q-18 -27 -25 -43l-203 -385h246z" glyph-name="yen" unicode="¥"/><glyph d="M559 1393l245 -17q50 0 79 15v-267q-113 217 -289 216t-176 -158q0 -119 166 -158t214 -55q152 -51 152 -224q0 -172 -127 -258q121 -59 121 -209t-88 -227.5t-250 -77.5q-53 1 -154 13q-100 12 -138 12t-72 -14l-9 321l13 -16l49 -92q92 -170 289 -170q174 0 174 153 q0 74 -40 112t-190 72t-217 78q-88 61 -88 197q0 176 133 248q-129 63 -129 223q0 283 332 283zM760 647q0 127 -137 160l-148 39q-61 -47 -61 -125t48 -111t79 -41l118 -30l50 -15q51 43 51 123z" glyph-name="section" unicode="§"/><glyph d="M524 1323l131 -149l-131 -148l-131 148zM158 1323l131 -149l-131 -148l-131 148z" glyph-name="dieresis" horiz-adv-x="679" unicode="¨"/><glyph d="M1530 686q0 -295 -207 -504t-503 -209t-504 206t-208 502t206 504q204 208 500 208t506 -206t210 -501zM1475 683q1 273 -191 463t-462 191q-270 0 -465 -187q-193 -187 -193 -461q0 -273 187 -467t464 -194t469 192q192 190 191 463zM604 702q0 -190 62.5 -272 t217.5 -82t251 78v-8q0 -70 -84 -115q-86 -43 -217 -43q-199 0 -288 99t-89 321t85 320q85 97 279 98l228 -15q31 0 61 13v-246q-18 30 -29.5 49t-27 45.5t-45.5 48.5q-76 59 -191 59t-164 -80t-49 -270z" glyph-name="copyright" horiz-adv-x="1638" unicode="©"/><glyph d="M164 819q-174 0 -174 125q0 68 42 112t154 68t136 50q18 23 18 65q0 119 -100 119q-129 0 -205 -131v155h6q12 -4 49 -4t49 4l58 7q25 4 107 4t121 -33q40 -33 40 -115v-250q0 -63 8 -104q8 -24 35 -55h-160l-6 55q-66 -72 -178 -72zM340 1018v119q-14 -12 -80 -30 t-106 -50q-33 -31 -33 -82t27.5 -81t70.5 -30q121 0 121 154z" glyph-name="ordfeminine" horiz-adv-x="522" unicode="ª"/><glyph d="M618 805h152l-260 -379l258 -381h-150l-268 383zM311 805h152l-260 -379l258 -381h-150l-268 383z" glyph-name="guillemotleft" horiz-adv-x="813" unicode="«"/><glyph d="M1120 623v-496h-119v377h-948v119h1067z" glyph-name="logicalnot" unicode="¬"/><glyph d="M638 1393q242 1 408 -169t166 -406t-167 -402q-167 -168 -403 -168t-406 166q-168 168 -168 402t163 409q166 168 407 168zM639 305q215 -1 365 149t151 366q0 216 -151 366q-154 150 -364 150t-363 -148q-153 -146 -153 -362t148 -369q152 -152 367 -152zM543 817h-21 v-170q0 -59 4 -82t37 -47h-188q16 12 26 23q16 27 17 106v342q0 39 -4 72t-39 57h280q104 0 148.5 -33.5t44.5 -113.5q0 -143 -160 -152l129 -162q80 -100 152 -139h-170l-189 248q-39 51 -67 51zM739 965q1 71 -29 97t-98 26t-79 -3.5t-11 -19.5v-217h99q118 0 118 117z " glyph-name="registered" horiz-adv-x="1282" unicode="®"/><glyph d="M565 1241v-123h-538v123h538z" glyph-name="macron" horiz-adv-x="589" unicode="¯"/><glyph d="M820.5 1140.5q-0.5 -96.5 -68.5 -164.5t-165 -69q-97 0 -167 70q-68 72 -68 169t80 175q62 57 158 57t164 -69q67 -72 66.5 -168.5zM713 1139q0 49 -31.5 87t-93.5 44q-53 0 -90 -39t-37 -90t37 -88t89 -37t89 37t37 86z" glyph-name="degree" unicode="°"/><glyph d="M1075 791v-117h-430v-424h-117v424h-430v117h430v423h117v-423h430zM1075 115v-115h-977v115h977z" glyph-name="plusminus" unicode="±"/><glyph d="M190 1309h201l-237 -262h-127z" glyph-name="acute" horiz-adv-x="417" unicode="´"/><glyph d="M664 31q-56 -41 -150 -41t-135 41v-357h-285v1223h291v-500q0 -159 122 -159q130 0 130 159v500h291v-596q0 -80 65 -80q20 0 49 17l19 18l102 -141q-23 -37 -61 -70q-76 -68 -177 -68q-150 0 -218 97q-14 -25 -43 -43z" glyph-name="uni00B5" horiz-adv-x="1257" unicode="µ"/><glyph d="M664 31q-56 -41 -150 -41t-135 41v-357h-285v1223h291v-500q0 -159 122 -159q130 0 130 159v500h291v-596q0 -80 65 -80q20 0 49 17l19 18l102 -141q-23 -37 -61 -70q-76 -68 -177 -68q-150 0 -218 97q-14 -25 -43 -43z" glyph-name="uni00B5" horiz-adv-x="1257" unicode="μ"/><glyph d="M1036 1366v-109h-106v-1640h-111v1640h-184v-1640h-109v946q-186 4 -286 111q-102 102 -102 288t122 304q52 48 114 74t236 26h426zM258 963q0 -152 92 -234q61 -55 176 -61v589q-80 -2 -125 -22q-67 -31 -105 -104t-38 -168z" glyph-name="paragraph" unicode="¶"/><glyph d="M246 852l149 -170l-149 -168l-150 168z" glyph-name="periodcentered" horiz-adv-x="491" unicode="·"/><glyph d="M436 -236q0 -68 -61 -110q-59 -45 -151 -45t-197 53l49 74q80 -39 141 -39q96 1 96 67t-108 66q-41 0 -74 -8l133 198h117l-92 -124q147 -15 147 -132z" glyph-name="cedilla" horiz-adv-x="462" unicode="¸"/><glyph d="M563 1106q0 -287 -274.5 -287t-274.5 281q0 154 65.5 223.5t209.5 69.5q274 0 274 -287zM424 1106q0 139 -31 194q-27 58 -103 58t-106 -56.5t-30 -194.5t28 -196q31 -55 107 -55t104 55q31 56 31 195z" glyph-name="ordmasculine" horiz-adv-x="577" unicode="º"/><glyph d="M504 805l266 -377l-268 -383h-150l260 381l-260 379h152zM197 805l266 -377l-268 -383h-150l260 381l-262 379h154z" glyph-name="guillemotright" horiz-adv-x="813" unicode="»"/><glyph d="M537 971l149 -170l-149 -170l-150 170zM793 -424q-88 0 -161 -8t-143 -8q-440 0 -440 280q0 170 182 293l170 115q115 78 115 139q0 49 -100 51l237 133q43 -39 43 -88q0 -78 -123 -200l-116 -117q-158 -158 -158 -320q0 -219 223 -219q262 1 412 267v-338 q-53 20 -141 20z" glyph-name="questiondown" horiz-adv-x="985" unicode="¿"/><glyph d="M975 98q0 65 -31 152l-117 321h-450l-113 -297q-39 -98 -39 -166t35 -108h-307q121 97 217 348l254 637q63 159 63 237t-53 144h344q4 -18 31 -98l70 -174l278 -738q98 -260 213 -356h-428q33 33 33 98zM406 647h389l-195 516zM569 1767l164 -262h-125l-239 262h200z" glyph-name="Agrave" horiz-adv-x="1323" unicode="À"/><glyph d="M975 98q0 65 -31 152l-117 321h-450l-113 -297q-39 -98 -39 -166t35 -108h-307q121 97 217 348l254 637q63 159 63 237t-53 144h344q4 -18 31 -98l70 -174l278 -738q98 -260 213 -356h-428q33 33 33 98zM406 647h389l-195 516zM659 1767h201l-237 -262h-127z" glyph-name="Aacute" horiz-adv-x="1323" unicode="Á"/><glyph d="M975 98q0 65 -31 152l-117 321h-450l-113 -297q-39 -98 -39 -166t35 -108h-307q121 97 217 348l254 637q63 159 63 237t-53 144h344q4 -18 31 -98l70 -174l278 -738q98 -260 213 -356h-428q33 33 33 98zM406 647h389l-195 516zM692 1767l182 -262h-147l-119 170 l-123 -170h-145l184 262h168z" glyph-name="Acircumflex" horiz-adv-x="1323" unicode="Â"/><glyph d="M975 98q0 65 -31 152l-117 321h-450l-113 -297q-39 -98 -39 -166t35 -108h-307q121 97 217 348l254 637q63 159 63 237t-53 144h344q4 -18 31 -98l70 -174l278 -738q98 -260 213 -356h-428q33 33 33 98zM406 647h389l-195 516zM752 1518q-64 0 -160 35t-119 34 q-76 0 -84 -82h-92q25 201 192 201q57 0 132 -29l55 -22q43 -16 67 -17q73 0 91 86h92q-4 -88 -57 -147t-117 -59z" glyph-name="Atilde" horiz-adv-x="1323" unicode="Ã"/><glyph d="M975 98q0 65 -31 152l-117 321h-450l-113 -297q-39 -98 -39 -166t35 -108h-307q121 97 217 348l254 637q63 159 63 237t-53 144h344q4 -18 31 -98l70 -174l278 -738q98 -260 213 -356h-428q33 33 33 98zM406 647h389l-195 516zM801 1782l131 -150l-131 -147l-131 147z M434 1782l131 -150l-131 -147l-131 147z" glyph-name="Adieresis" horiz-adv-x="1323" unicode="Ä"/><glyph d="M975 98q0 65 -31 152l-117 321h-450l-113 -297q-39 -98 -39 -166t35 -108h-307q121 97 217 348l254 637q63 159 63 237t-53 144h344q4 -18 31 -98l70 -174l278 -738q98 -260 213 -356h-428q33 33 33 98zM406 647h389l-195 516zM788 1632q0 -76 -55 -131t-130 -55t-132 53 q-53 57 -53 131t53 131q55 55 130 55t132 -53q55 -55 55 -131zM705 1631q0 42 -30 72t-72 30t-73 -29q-30 -29 -30 -73t29.5 -72.5t72.5 -28.5t73 29.5t30 71.5z" glyph-name="Aring" horiz-adv-x="1323" unicode="Å"/><glyph d="M1381 66q177 0 309 96q82 59 178 196l-51 -358h-1045q39 28 58 54q38 51 38 239v270h-383l-182 -303q-74 -123 -74 -203q0 -37 17 -57h-293q127 76 272 307l424 676q127 205 127 272.5t-28 110.5h1036l8 -268q-160 207 -475 200l-111 -2q-63 -4 -80 -16q-25 -23 -24 -152 v-360h16l70 -2q143 0 255 13t222 108v-287q-59 38 -136 66t-302 28h-125v-360l4 -94q6 -96 37 -123q61 -51 238 -51zM868 635v563l-346 -563h346z" glyph-name="AE" horiz-adv-x="1894" unicode="Æ"/><glyph d="M1225 242q0 -113 -121 -184t-326 -83l-63 -84q150 -23 149 -131q0 -70 -59 -112t-151 -43q-92 0 -201 53l49 74q78 -39 141 -39q96 1 96 67t-106 66q-43 0 -74 -8l105 155q-104 8 -185 27q-211 53 -307 215t-96 461q0 387 141 553q145 164 479 164q126 1 230 -11t155 -12 t101 21v-416l-101 160q-126 184 -383 184q-204 0 -288 -137q-84 -138 -84 -460t106 -462q110 -137 364 -137t427 131l2 -8v-4z" glyph-name="Ccedilla" horiz-adv-x="1230" unicode="Ç"/><glyph d="M162 293v778q0 103 -11 169t-83 126h1009l8 -268q-158 207 -475 200l-108 -2q-70 -4 -82 -16q-25 -23 -25 -152v-356h25q33 0 55 -2h49q172 0 260 24t177 97v-287q-63 41 -115 60q-100 37 -299 36h-27l-125 -2v-364q0 -41 4 -94q2 -90 39 -123q56 -51 228 -51t299 84 q98 63 196 208l-51 -358h-1042q39 29 66.5 66.5t27.5 226.5zM582 1767l163 -262h-124l-240 262h201z" glyph-name="Egrave" horiz-adv-x="1187" unicode="È"/><glyph d="M162 293v778q0 103 -11 169t-83 126h1009l8 -268q-158 207 -475 200l-108 -2q-70 -4 -82 -16q-25 -23 -25 -152v-356h25q33 0 55 -2h49q172 0 260 24t177 97v-287q-63 41 -115 60q-100 37 -299 36h-27l-125 -2v-364q0 -41 4 -94q2 -90 39 -123q56 -51 228 -51t299 84 q98 63 196 208l-51 -358h-1042q39 29 66.5 66.5t27.5 226.5zM635 1767h201l-238 -262h-127z" glyph-name="Eacute" horiz-adv-x="1187" unicode="É"/><glyph d="M162 293v778q0 103 -11 169t-83 126h1009l8 -268q-158 207 -475 200l-108 -2q-70 -4 -82 -16q-25 -23 -25 -152v-356h25q33 0 55 -2h49q172 0 260 24t177 97v-287q-63 41 -115 60q-100 37 -299 36h-27l-125 -2v-364q0 -41 4 -94q2 -90 39 -123q56 -51 228 -51t299 84 q98 63 196 208l-51 -358h-1042q39 29 66.5 66.5t27.5 226.5zM668 1767l182 -262h-148l-118 170l-123 -170h-146l185 262h168z" glyph-name="Ecircumflex" horiz-adv-x="1187" unicode="Ê"/><glyph d="M162 293v778q0 103 -11 169t-83 126h1009l8 -268q-158 207 -475 200l-108 -2q-70 -4 -82 -16q-25 -23 -25 -152v-356h25q33 0 55 -2h49q172 0 260 24t177 97v-287q-63 41 -115 60q-100 37 -299 36h-27l-125 -2v-364q0 -41 4 -94q2 -90 39 -123q56 -51 228 -51t299 84 q98 63 196 208l-51 -358h-1042q39 29 66.5 66.5t27.5 226.5zM807 1782l131 -150l-131 -147l-131 147zM440 1782l131 -150l-131 -147l-131 147z" glyph-name="Edieresis" horiz-adv-x="1187" unicode="Ë"/><glyph d="M164 293v778q0 99 -10 169t-86 126h428q-38 -28 -58 -54q-36 -44 -37 -241v-778q0 -121 11 -174q8 -64 84 -119h-428q43 30 60 54q36 50 36 239zM219 1767l164 -262h-125l-240 262h201z" glyph-name="Igrave" horiz-adv-x="565" unicode="Ì"/><glyph d="M164 293v778q0 99 -10 169t-86 126h428q-38 -28 -58 -54q-36 -44 -37 -241v-778q0 -121 11 -174q8 -64 84 -119h-428q43 30 60 54q36 50 36 239zM330 1767h200l-237 -262h-127z" glyph-name="Iacute" horiz-adv-x="565" unicode="Í"/><glyph d="M164 293v778q0 99 -10 169t-86 126h428q-38 -28 -58 -54q-36 -44 -37 -241v-778q0 -121 11 -174q8 -64 84 -119h-428q43 30 60 54q36 50 36 239zM373 1767l182 -262h-147l-119 170l-123 -170h-146l185 262h168z" glyph-name="Icircumflex" horiz-adv-x="565" unicode="Î"/><glyph d="M164 293v778q0 99 -10 169t-86 126h428q-38 -28 -58 -54q-36 -44 -37 -241v-778q0 -121 11 -174q8 -64 84 -119h-428q43 30 60 54q36 50 36 239zM469 1782l131 -150l-131 -147l-131 147zM102 1782l131 -150l-131 -147l-131 147z" glyph-name="Idieresis" horiz-adv-x="565" unicode="Ï"/><glyph d="M1217 1071v-1071h-189l-772 1114v-821q0 -97 10 -167t86 -126h-284q43 30 60 54q36 50 36 239v778q0 99 -10 169t-86 126h309l747 -1079v784q0 100 -10 170t-86 125h285q-74 -51 -85 -123t-11 -172zM818 1518q-64 0 -158 35t-119 34q-76 0 -84 -82h-92q25 201 192 201 q57 0 131 -29l55 -22q43 -16 68 -17q72 0 90 86h92q-4 -88 -57.5 -147t-117.5 -59z" glyph-name="Ntilde" horiz-adv-x="1380" unicode="Ñ"/><glyph d="M1309 683q0 -249 -31 -369t-115 -197q-156 -143 -471 -143.5t-471 143.5q-84 78 -114.5 194.5t-30.5 364.5t30 371t115 202q152 143 469 143t473 -143q84 -73 115 -195t31 -371zM1059 682q0 211 -4 246q-12 141 -60 233q-41 74 -123 116t-180 42t-182 -43t-126 -125 q-42 -81 -50 -185t-8 -281t4 -239q12 -158 56 -236t125 -120q81 -43 180 -43t181 42t123 116q47 92 60 233q4 33 4 244zM637 1767l164 -262h-125l-240 262h201z" glyph-name="Ograve" horiz-adv-x="1384" unicode="Ò"/><glyph d="M1309 683q0 -249 -31 -369t-115 -197q-156 -143 -471 -143.5t-471 143.5q-84 78 -114.5 194.5t-30.5 364.5t30 371t115 202q152 143 469 143t473 -143q84 -73 115 -195t31 -371zM1059 682q0 211 -4 246q-12 141 -60 233q-41 74 -123 116t-180 42t-182 -43t-126 -125 q-42 -81 -50 -185t-8 -281t4 -239q12 -158 56 -236t125 -120q81 -43 180 -43t181 42t123 116q47 92 60 233q4 33 4 244zM737 1767h201l-238 -262h-127z" glyph-name="Oacute" horiz-adv-x="1384" unicode="Ó"/><glyph d="M1309 683q0 -249 -31 -369t-115 -197q-156 -143 -471 -143.5t-471 143.5q-84 78 -114.5 194.5t-30.5 364.5t30 371t115 202q152 143 469 143t473 -143q84 -73 115 -195t31 -371zM1059 682q0 211 -4 246q-12 141 -60 233q-41 74 -123 116t-180 42t-182 -43t-126 -125 q-42 -81 -50 -185t-8 -281t4 -239q12 -158 56 -236t125 -120q81 -43 180 -43t181 42t123 116q47 92 60 233q4 33 4 244zM776 1767l182 -262h-147l-119 170l-123 -170h-145l184 262h168z" glyph-name="Ocircumflex" horiz-adv-x="1384" unicode="Ô"/><glyph d="M1309 683q0 -249 -31 -369t-115 -197q-156 -143 -471 -143.5t-471 143.5q-84 78 -114.5 194.5t-30.5 364.5t30 371t115 202q152 143 469 143t473 -143q84 -73 115 -195t31 -371zM1059 682q0 211 -4 246q-12 141 -60 233q-41 74 -123 116t-180 42t-182 -43t-126 -125 q-42 -81 -50 -185t-8 -281t4 -239q12 -158 56 -236t125 -120q81 -43 180 -43t181 42t123 116q47 92 60 233q4 33 4 244zM842 1518q-62 0 -158 35t-121 34q-76 0 -84 -82h-92q25 201 193 201q57 0 131 -29l55 -22q43 -16 68 -17q72 0 90 86h92q-4 -88 -57.5 -147t-116.5 -59z " glyph-name="Otilde" horiz-adv-x="1384" unicode="Õ"/><glyph d="M1309 683q0 -249 -31 -369t-115 -197q-156 -143 -471 -143.5t-471 143.5q-84 78 -114.5 194.5t-30.5 364.5t30 371t115 202q152 143 469 143t473 -143q84 -73 115 -195t31 -371zM1059 682q0 211 -4 246q-12 141 -60 233q-41 74 -123 116t-180 42t-182 -43t-126 -125 q-42 -81 -50 -185t-8 -281t4 -239q12 -158 56 -236t125 -120q81 -43 180 -43t181 42t123 116q47 92 60 233q4 33 4 244zM885 1782l131 -150l-131 -147l-131 147zM518 1782l131 -150l-131 -147l-131 147z" glyph-name="Odieresis" horiz-adv-x="1384" unicode="Ö"/><glyph d="M1305 666q0 -240 -33 -359q-92 -332 -586 -334q-279 0 -450 127l-89 -100h-110l139 160q-59 76 -86 192q-20 124 -20 354t30 347q100 338 586 340q297 0 459 -131l92 104h117l-150 -170q59 -72 78 -186q23 -104 23 -344zM686 1319q-96 0 -178 -42t-126 -123 q-44 -82 -52 -188t-8 -315t14 -309l676 768q-78 209 -326 209zM1055 707q0 208 -15 303l-675 -764q86 -199 323 -199q98 0 180 43t123 115q47 88 60 221q4 73 4 281z" glyph-name="Oslash" horiz-adv-x="1386" unicode="Ø"/><glyph d="M1235 1071v-614q0 -135 -24 -216q-79 -266 -506 -266q-322 0 -451 129q-63 68 -82 164q-8 70 -8 189v614q0 99 -10 169t-86 126h426q-42 -32 -60 -56q-33 -44 -35 -239v-579q0 -205 43 -285q74 -141 322 -141t326 137q45 82 45 289v579q-1 100 -13 171t-84 124h293 q-74 -53 -85 -124t-11 -171zM662 1767l163 -262h-125l-239 262h201z" glyph-name="Ugrave" horiz-adv-x="1378" unicode="Ù"/><glyph d="M1235 1071v-614q0 -135 -24 -216q-79 -266 -506 -266q-322 0 -451 129q-63 68 -82 164q-8 70 -8 189v614q0 99 -10 169t-86 126h426q-42 -32 -60 -56q-33 -44 -35 -239v-579q0 -205 43 -285q74 -141 322 -141t326 137q45 82 45 289v579q-1 100 -13 171t-84 124h293 q-74 -53 -85 -124t-11 -171zM780 1767h201l-238 -262h-127z" glyph-name="Uacute" horiz-adv-x="1378" unicode="Ú"/><glyph d="M1235 1071v-614q0 -135 -24 -216q-79 -266 -506 -266q-322 0 -451 129q-63 68 -82 164q-8 70 -8 189v614q0 99 -10 169t-86 126h426q-42 -32 -60 -56q-33 -44 -35 -239v-579q0 -205 43 -285q74 -141 322 -141t326 137q45 82 45 289v579q-1 100 -13 171t-84 124h293 q-74 -53 -85 -124t-11 -171zM758 1767l182 -262h-147l-119 170l-123 -170h-145l184 262h168z" glyph-name="Ucircumflex" horiz-adv-x="1378" unicode="Û"/><glyph d="M1235 1071v-614q0 -135 -24 -216q-79 -266 -506 -266q-322 0 -451 129q-63 68 -82 164q-8 70 -8 189v614q0 99 -10 169t-86 126h426q-42 -32 -60 -56q-33 -44 -35 -239v-579q0 -205 43 -285q74 -141 322 -141t326 137q45 82 45 289v579q-1 100 -13 171t-84 124h293 q-74 -53 -85 -124t-11 -171zM897 1782l131 -150l-131 -147l-131 147zM530 1782l132 -150l-132 -147l-131 147z" glyph-name="Udieresis" horiz-adv-x="1378" unicode="Ü"/><glyph d="M778 293q0 -96 12 -168t84 -125h-425q39 28 58 54q34 46 36 239v301l-373 559q-76 113 -197 213h473q-39 -55 -38 -90q0 -66 63 -166l258 -405l229 360q70 109 70 179t-51 122h369q-69 -46 -98.5 -88t-71.5 -95q-42 -54 -80 -110l-318 -479v-301zM733 1767h201l-238 -262 h-127z" glyph-name="Yacute" horiz-adv-x="1316" unicode="Ý"/><glyph d="M1157 313q0 -164 -101.5 -252t-289.5 -88q-80 0 -238 35q-49 8 -60 8t-40 -6v314q43 -96 76 -152q80 -137 223 -137q203 0 203 282q0 244 -174 336l-109 58q-76 39 -76 65t41 51q16 10 50 39q106 100 106 221q0 305 -248 306q-119 0 -155 -78q-25 -53 -25 -232v-1083 h-277q31 33 50 82t18 250v745q0 129 2 148q12 84 55 133q86 96 303 96t347 -89t131 -258q0 -169 -183 -259l-63 -31q-51 -25 -51 -39q0 -8 61 -30l113 -39q76 -29 153 -80q158 -111 158 -316z" glyph-name="germandbls" horiz-adv-x="1202" unicode="ß"/><glyph d="M172 903q42 0 92 6l96 13q49 6 134 6q174 0 244 -53t69 -191v-340l2 -74v-4l4 -123q3 -80 66 -143h-265l-10 92q-104 -119 -301 -119q-287 0 -287 209q0 117 71 188q71 70 257 112t220 77t34 129t-38 137t-130 43q-217 0 -340 -215v258q40 -8 82 -8zM600 305v195 q-33 -16 -102 -39q-131 -37 -198 -85t-67 -138q-1 -90 45 -141q46 -50 106 -50t113.5 28.5t80.5 82.5q22 55 22 147zM414 1309l164 -262h-125l-240 262h201z" glyph-name="agrave" horiz-adv-x="925" unicode="à"/><glyph d="M172 903q42 0 92 6l96 13q49 6 134 6q174 0 244 -53t69 -191v-340l2 -74v-4l4 -123q3 -80 66 -143h-265l-10 92q-104 -119 -301 -119q-287 0 -287 209q0 117 71 188q71 70 257 112t220 77t34 129t-38 137t-130 43q-217 0 -340 -215v258q40 -8 82 -8zM600 305v195 q-33 -16 -102 -39q-131 -37 -198 -85t-67 -138q-1 -90 45 -141q46 -50 106 -50t113.5 28.5t80.5 82.5q22 55 22 147zM467 1309h201l-238 -262h-127z" glyph-name="aacute" horiz-adv-x="925" unicode="á"/><glyph d="M172 903q42 0 92 6l96 13q49 6 134 6q174 0 244 -53t69 -191v-340l2 -74v-4l4 -123q3 -80 66 -143h-265l-10 92q-104 -119 -301 -119q-287 0 -287 209q0 117 71 188q71 70 257 112t220 77t34 129t-38 137t-130 43q-217 0 -340 -215v258q40 -8 82 -8zM600 305v195 q-33 -16 -102 -39q-131 -37 -198 -85t-67 -138q-1 -90 45 -141q46 -50 106 -50t113.5 28.5t80.5 82.5q22 55 22 147zM535 1309l182 -262h-148l-118 170l-123 -170h-146l185 262h168z" glyph-name="acircumflex" horiz-adv-x="925" unicode="â"/><glyph d="M172 903q42 0 92 6l96 13q49 6 134 6q174 0 244 -53t69 -191v-340l2 -74v-4l4 -123q3 -80 66 -143h-265l-10 92q-104 -119 -301 -119q-287 0 -287 209q0 117 71 188q71 70 257 112t220 77t34 129t-38 137t-130 43q-217 0 -340 -215v258q40 -8 82 -8zM600 305v195 q-33 -16 -102 -39q-131 -37 -198 -85t-67 -138q-1 -90 45 -141q46 -50 106 -50t113.5 28.5t80.5 82.5q22 55 22 147zM602 1059q-64 0 -160 35q-94 35 -118 34q-76 0 -84 -81h-93q25 201 193 200q57 0 131 -28l55 -23q43 -16 68 -16q72 0 90 86h92q-4 -88 -57 -147.5 t-117 -59.5z" glyph-name="atilde" horiz-adv-x="925" unicode="ã"/><glyph d="M172 903q42 0 92 6l96 13q49 6 134 6q174 0 244 -53t69 -191v-340l2 -74v-4l4 -123q3 -80 66 -143h-265l-10 92q-104 -119 -301 -119q-287 0 -287 209q0 117 71 188q71 70 257 112t220 77t34 129t-38 137t-130 43q-217 0 -340 -215v258q40 -8 82 -8zM600 305v195 q-33 -16 -102 -39q-131 -37 -198 -85t-67 -138q-1 -90 45 -141q46 -50 106 -50t113.5 28.5t80.5 82.5q22 55 22 147zM633 1323l131 -149l-131 -148l-131 148zM266 1323l131 -149l-131 -148l-131 148z" glyph-name="adieresis" horiz-adv-x="925" unicode="ä"/><glyph d="M172 903q42 0 92 6l96 13q49 6 134 6q174 0 244 -53t69 -191v-340l2 -74v-4l4 -123q3 -80 66 -143h-265l-10 92q-104 -119 -301 -119q-287 0 -287 209q0 117 71 188q71 70 257 112t220 77t34 129t-38 137t-130 43q-217 0 -340 -215v258q40 -8 82 -8zM600 305v195 q-33 -16 -102 -39q-131 -37 -198 -85t-67 -138q-1 -90 45 -141q46 -50 106 -50t113.5 28.5t80.5 82.5q22 55 22 147zM602 1173.5q0 -75.5 -55 -131t-130 -55.5t-132 53q-53 57 -53.5 131t53.5 132q55 55 130 55t132 -53q55 -56 55 -131.5zM518 1172q0 42 -29.5 72t-71.5 30 t-73 -29t-31 -73t30 -72.5t73 -28.5t72.5 29.5t29.5 71.5z" glyph-name="aring" horiz-adv-x="925" unicode="å"/><glyph d="M196 899q40 0 85 6l94 13q45 6 127 6q178 0 260 -86q37 31 69 47q76 39 197 39q199 0 301 -103q89 -83 101 -286l-617 2v-7q0 -199 53 -294q80 -139 271 -140q127 0 284 76q-18 -72 -55 -109q-86 -86 -279 -86q-123 -1 -233 47t-166 130q-117 -176 -360 -177 q-305 0 -305 228q0 72 45 139q33 45 88 74q66 28 214 64t191 71q49 33 49 131q0 180 -172 180q-165 0 -272 -135l-49 -65l-13 -15v258q52 -8 92 -8zM1188 670q0 205 -170 204q-92 0 -135 -63q-40 -49 -68 -219h275q58 0 78 16t20 62zM600 406q0 65 4 96q-32 -18 -158 -62 t-160 -89q-34 -47 -34 -121t43 -124.5t117 -50.5q153 1 223 181q-35 105 -35 170z" glyph-name="ae" horiz-adv-x="1464" unicode="æ"/><glyph d="M631 -213q0 -55 -48 -90t-121 -35t-159 43l41 57q68 -31 111 -30q78 0 77 55q0 51 -86 51q-27 0 -59 -6l96 141q-227 18 -325.5 129t-98.5 349q0 477 414 477q70 0 131 -6l101 -11q9 -2 49 -2t71 15v-285l-61 84q-106 143 -244 143t-194 -85t-56 -289t74 -300 q74 -98 226 -98t292 72l-2 -10q-51 -166 -285 -183l-63 -84q119 -8 119 -102z" glyph-name="ccedilla" horiz-adv-x="862" unicode="ç"/><glyph d="M281 541v-9q0 -211 61 -309q82 -133 264 -133q131 0 285 76q-25 -72 -55 -107q-80 -86 -304 -86t-348.5 121t-124.5 352.5t113 356.5t318 125t309 -103q88 -85 100 -284h-618zM657 672q0 193 -172 192q-178 0 -200 -264v-4h274q61 0 79 16t19 60zM444 1309l164 -262h-125 l-239 262h200z" glyph-name="egrave" horiz-adv-x="940" unicode="è"/><glyph d="M281 541v-9q0 -211 61 -309q82 -133 264 -133q131 0 285 76q-25 -72 -55 -107q-80 -86 -304 -86t-348.5 121t-124.5 352.5t113 356.5t318 125t309 -103q88 -85 100 -284h-618zM657 672q0 193 -172 192q-178 0 -200 -264v-4h274q61 0 79 16t19 60zM528 1309h201l-237 -262 h-127z" glyph-name="eacute" horiz-adv-x="940" unicode="é"/><glyph d="M281 541v-9q0 -211 61 -309q82 -133 264 -133q131 0 285 76q-25 -72 -55 -107q-80 -86 -304 -86t-348.5 121t-124.5 352.5t113 356.5t318 125t309 -103q88 -85 100 -284h-618zM657 672q0 193 -172 192q-178 0 -200 -264v-4h274q61 0 79 16t19 60zM571 1309l183 -262h-148 l-119 170l-122 -170h-146l184 262h168z" glyph-name="ecircumflex" horiz-adv-x="940" unicode="ê"/><glyph d="M281 541v-9q0 -211 61 -309q82 -133 264 -133q131 0 285 76q-25 -72 -55 -107q-80 -86 -304 -86t-348.5 121t-124.5 352.5t113 356.5t318 125t309 -103q88 -85 100 -284h-618zM657 672q0 193 -172 192q-178 0 -200 -264v-4h274q61 0 79 16t19 60zM664 1323l131 -149 l-131 -148l-132 148zM297 1323l131 -149l-131 -148l-131 148z" glyph-name="edieresis" horiz-adv-x="940" unicode="ë"/><glyph d="M139 385v158q0 129 -18.5 190.5t-65.5 100.5l303 90q-8 -84 -8 -234v-305q0 -166 4 -221q2 -92 68 -164h-356q63 68 68 174t5 211zM188 1309l164 -262h-125l-239 262h200z" glyph-name="igrave" horiz-adv-x="477" unicode="ì"/><glyph d="M139 385v158q0 129 -18.5 190.5t-65.5 100.5l303 90q-8 -84 -8 -234v-305q0 -166 4 -221q2 -92 68 -164h-356q63 68 68 174t5 211zM256 1309h201l-238 -262h-127z" glyph-name="iacute" horiz-adv-x="477" unicode="í"/><glyph d="M139 385v158q0 129 -18.5 190.5t-65.5 100.5l303 90q-8 -84 -8 -234v-305q0 -166 4 -221q2 -92 68 -164h-356q63 68 68 174t5 211zM326 1309l182 -262h-148l-118 170l-123 -170h-146l185 262h168z" glyph-name="icircumflex" horiz-adv-x="477" unicode="î"/><glyph d="M139 385v158q0 129 -18.5 190.5t-65.5 100.5l303 90q-8 -84 -8 -234v-305q0 -166 4 -221q2 -92 68 -164h-356q63 68 68 174t5 211zM424 1323l131 -149l-131 -148l-131 148zM57 1323l131 -149l-131 -148l-131 148z" glyph-name="idieresis" horiz-adv-x="477" unicode="ï"/><glyph d="M717 385v213q0 264 -166 264q-117 0 -166 -98q-35 -74 -35 -227v-152q0 -166 4 -221q2 -92 68 -164h-356q63 68 68 174t5 211v160q0 129 -18.5 190.5t-65.5 100.5l289 88l-4 -111q94 115 274 115t252 -74q43 -43 56 -121q4 -45 4 -137v-211q0 -129 6 -225t67 -160h-356 q33 41 53 87t21 298zM654 1059q-64 0 -158 35t-119 34q-76 0 -84 -81h-92q25 201 192 200q57 0 131 -28l56 -23q43 -16 67 -16q72 0 90 86h92q-4 -88 -57.5 -147.5t-117.5 -59.5z" glyph-name="ntilde" horiz-adv-x="1054" unicode="ñ"/><glyph d="M975 450.5q0 -247.5 -110.5 -362.5t-347.5 -115t-347.5 114t-110.5 377t131 370q110 94 338 94t337.5 -115t109.5 -362.5zM741 450.5q0 233.5 -51 323.5q-49 94 -173 94t-175 -92t-51 -324t50 -325q50 -94 175 -94t174 94q51 90 51 323.5zM451 1309l163 -262h-125 l-239 262h201z" glyph-name="ograve" horiz-adv-x="1034" unicode="ò"/><glyph d="M975 450.5q0 -247.5 -110.5 -362.5t-347.5 -115t-347.5 114t-110.5 377t131 370q110 94 338 94t337.5 -115t109.5 -362.5zM741 450.5q0 233.5 -51 323.5q-49 94 -173 94t-175 -92t-51 -324t50 -325q50 -94 175 -94t174 94q51 90 51 323.5zM532 1309h201l-237 -262h-127z " glyph-name="oacute" horiz-adv-x="1034" unicode="ó"/><glyph d="M975 450.5q0 -247.5 -110.5 -362.5t-347.5 -115t-347.5 114t-110.5 377t131 370q110 94 338 94t337.5 -115t109.5 -362.5zM741 450.5q0 233.5 -51 323.5q-49 94 -173 94t-175 -92t-51 -324t50 -325q50 -94 175 -94t174 94q51 90 51 323.5zM596 1309l182 -262h-147 l-119 170l-123 -170h-145l184 262h168z" glyph-name="ocircumflex" horiz-adv-x="1034" unicode="ô"/><glyph d="M975 450.5q0 -247.5 -110.5 -362.5t-347.5 -115t-347.5 114t-110.5 377t131 370q110 94 338 94t337.5 -115t109.5 -362.5zM741 450.5q0 233.5 -51 323.5q-49 94 -173 94t-175 -92t-51 -324t50 -325q50 -94 175 -94t174 94q51 90 51 323.5zM654 1059q-64 0 -158 35 t-119 34q-76 0 -84 -81h-92q25 201 192 200q57 0 131 -28l56 -23q43 -16 67 -16q72 0 90 86h92q-4 -88 -57.5 -147.5t-117.5 -59.5z" glyph-name="otilde" horiz-adv-x="1034" unicode="õ"/><glyph d="M975 450.5q0 -247.5 -110.5 -362.5t-347.5 -115t-347.5 114t-110.5 377t131 370q110 94 338 94t337.5 -115t109.5 -362.5zM741 450.5q0 233.5 -51 323.5q-49 94 -173 94t-175 -92t-51 -324t50 -325q50 -94 175 -94t174 94q51 90 51 323.5zM705 1323l131 -149l-131 -148 l-132 148zM338 1323l131 -149l-131 -148l-131 148z" glyph-name="odieresis" horiz-adv-x="1034" unicode="ö"/><glyph d="M975 434q0 -232 -110.5 -346.5t-344.5 -114.5q-180 0 -299 70l-37 -43h-98l78 92q-104 121 -104 363t109.5 357.5t346.5 115.5q172 0 293 -68l37 43h104l-80 -94l31 -37q74 -106 74 -338zM526 868q-134 0 -185 -94q-50 -94 -50 -332q0 -106 12 -188l404 487 q-47 127 -181 127zM741 457q0 109 -10 190l-405 -485q49 -129 183 -129t183 93t49 331z" glyph-name="oslash" horiz-adv-x="1034" unicode="ø"/><glyph d="M125 315v228q-1 129 -19 193t-65 98l303 90q-8 -127 -8 -234v-348q0 -143 12 -186q31 -102 160 -103q84 0 144 55t61 252v183q0 223 -86 291l305 90q-10 -82 -10 -234v-305q0 -123 6 -221t67 -164h-272l-2 82q-49 -43 -72 -55q-93 -53 -239 -53q-246 -1 -279 196 q-6 41 -6 145zM444 1309l164 -262h-125l-239 262h200z" glyph-name="ugrave" horiz-adv-x="1050" unicode="ù"/><glyph d="M125 315v228q-1 129 -19 193t-65 98l303 90q-8 -127 -8 -234v-348q0 -143 12 -186q31 -102 160 -103q84 0 144 55t61 252v183q0 223 -86 291l305 90q-10 -82 -10 -234v-305q0 -123 6 -221t67 -164h-272l-2 82q-49 -43 -72 -55q-93 -53 -239 -53q-246 -1 -279 196 q-6 41 -6 145zM557 1309h201l-238 -262h-127z" glyph-name="uacute" horiz-adv-x="1050" unicode="ú"/><glyph d="M125 315v228q-1 129 -19 193t-65 98l303 90q-8 -127 -8 -234v-348q0 -143 12 -186q31 -102 160 -103q84 0 144 55t61 252v183q0 223 -86 291l305 90q-10 -82 -10 -234v-305q0 -123 6 -221t67 -164h-272l-2 82q-49 -43 -72 -55q-93 -53 -239 -53q-246 -1 -279 196 q-6 41 -6 145zM584 1309l182 -262h-148l-118 170l-123 -170h-146l185 262h168z" glyph-name="ucircumflex" horiz-adv-x="1050" unicode="û"/><glyph d="M125 315v228q-1 129 -19 193t-65 98l303 90q-8 -127 -8 -234v-348q0 -143 12 -186q31 -102 160 -103q84 0 144 55t61 252v183q0 223 -86 291l305 90q-10 -82 -10 -234v-305q0 -123 6 -221t67 -164h-272l-2 82q-49 -43 -72 -55q-93 -53 -239 -53q-246 -1 -279 196 q-6 41 -6 145zM686 1323l131 -149l-131 -148l-131 148zM319 1323l132 -149l-132 -148l-131 148z" glyph-name="udieresis" horiz-adv-x="1050" unicode="ü"/><glyph d="M100 -592q-130 0 -161 10q193 77 327 232q133 154 133 264q0 37 -30 121l-166 444q-70 163 -94 205q-49 88 -121 135l282 101l275 -783l143 338q124 296 -10 426h301l-596 -1300q-61 -123 -113 -160q-40 -33 -170 -33zM559 1309h201l-238 -262h-127z" glyph-name="yacute" horiz-adv-x="964" unicode="ý"/><glyph d="M100 -592q-130 0 -161 10q193 77 327 232q133 154 133 264q0 37 -30 121l-166 444q-70 163 -94 205q-49 88 -121 135l282 101l275 -783l143 338q124 296 -10 426h301l-596 -1300q-61 -123 -113 -160q-40 -33 -170 -33zM674 1323l131 -149l-131 -148l-131 148zM307 1323 l131 -149l-131 -148l-131 148z" glyph-name="ydieresis" horiz-adv-x="964" unicode="ÿ"/><glyph d="M139 385v158q0 129 -18.5 190.5t-65.5 100.5l303 90q-8 -84 -8 -234v-305q0 -166 4 -221q2 -92 68 -164h-356q63 68 68 174t5 211z" glyph-name="dotlessi" horiz-adv-x="477" unicode="ı"/><glyph d="M645 0q-329 0 -449 186t-120 524t128 498q128 158 388 158h1296l8 -268q-158 207 -475 200l-108 -2q-70 -4 -82 -16q-25 -23 -25 -152v-356h17q37 0 63 -2h57q166 0 253 25t176 96v-287q-72 43 -115 60q-113 39 -295 38h-31l-125 -4v-364q0 -178 49 -223t211 -45t278 64 t228 228l-49 -358h-1278zM729 68q105 0 155 16t70 53q19 37 19 117l-2 954q0 60 -31 78t-154 19q-266 0 -366 -129t-100 -480q0 -352 90 -490t319 -138z" glyph-name="OE" horiz-adv-x="2000" unicode="Œ"/><glyph d="M956 535v-5q0 -199 62 -303q78 -133 262 -133q152 0 272 70l15 8q-25 -76 -56 -109q-83 -86 -293 -86t-348 111q-55 -47 -160 -79t-204 -32q-207 0 -320 95q-127 102 -127 378.5t127 378.5q113 94 322 95q88 0 166 -20t172 -87l6 -6q121 113 321 113t302 -103 q88 -83 100 -286h-619zM1333 668q0 201 -168 200q-100 0 -149 -71q-30 -43 -36 -77l-19 -128h274q59 0 82 16q16 17 16 60zM737 452q0 234 -51 322q-49 94 -174 94t-175 -91t-50 -325t49 -326q49 -93 175 -93t175 94q51 91 51 325z" glyph-name="oe" horiz-adv-x="1609" unicode="œ"/><glyph d="M1096 410q0 -434 -516 -435q-102 0 -189 13l-143 20q-78 8 -112 8t-73 -14l-4 440q4 -10 13 -22l61 -119q35 -63 96 -127q129 -131 326 -131q315 0 315 281q0 115 -55 159q-37 31 -92 49t-269 68t-292 107q-106 75 -106 289t116 305q117 91 358 92q55 0 129 -7l99 -8 q74 -6 154 -6t114 21v-371l-8 16q-141 283 -457 283q-145 0 -211.5 -62.5t-66.5 -195.5q-1 -133 73 -182t336 -107t340 -149q64 -76 64 -215zM672 1767h147l-182 -262h-168l-184 262h145l123 -170z" glyph-name="Scaron" horiz-adv-x="1142" unicode="Š"/><glyph d="M770 261q0 -132 -89 -210t-251 -78q-52 1 -154 13t-139 12t-71 -14l-7 321l9 -18q63 -143 143 -201t199 -59q172 0 172 153q0 74 -37 113q-41 39 -137 59q-209 47 -273 92q-88 61 -88 201q0 283 332 283q55 0 139 -8t119 -8q36 0 65 14v-267q-116 215 -290 215t-174 -157 q0 -123 157 -158q129 -29 221 -55q55 -20 89 -51q65 -60 65 -192zM535 1309h147l-182 -262h-168l-185 262h146l123 -170z" glyph-name="scaron" horiz-adv-x="811" unicode="š"/><glyph d="M778 293q0 -96 12 -168t84 -125h-425q39 28 58 54q34 46 36 239v301l-373 559q-76 113 -197 213h473q-39 -55 -38 -90q0 -66 63 -166l258 -405l229 360q70 109 70 179t-51 122h369q-69 -46 -98.5 -88t-71.5 -95q-42 -54 -80 -110l-318 -479v-301zM834 1782l131 -150 l-131 -147l-132 147zM467 1782l131 -150l-131 -147l-131 147z" glyph-name="Ydieresis" horiz-adv-x="1316" unicode="Ÿ"/><glyph d="M586 72q200 0 346 64t248 255l-11 -391h-1183l868 1294h-285q-197 0 -302 -55t-212 -211l8 338h1133l-870 -1294h260zM719 1767h147l-182 -262h-168l-184 262h145l123 -170z" glyph-name="Zcaron" horiz-adv-x="1222" unicode="Ž"/><glyph d="M63 901h801l-585 -846h157q158 0 242 48t172 173l-10 -276h-854l587 842q-23 4 -88 4q-164 0 -254 -43q-88 -47 -168 -166v264zM555 1309h147l-182 -262h-168l-184 262h145l123 -170z" glyph-name="zcaron" horiz-adv-x="890" unicode="ž"/><glyph d="M885 1399q-111 0 -129 -113q-6 -41 -6 -145v-254h131l53 2h53q8 0 22.5 1t20.5 1l-31 -72q-61 18 -168 19h-81v-840q0 -242 -23 -344t-82 -168q-80 -90 -266 -90l-246 10q-33 0 -70 -8v229q115 -178 263 -178t188 102q29 76 29 265v1022h-131l8 49h123v295q0 150 61 204 q74 68 246 68l86 -4l106 -6q29 0 70 10v-229q-33 76 -97 125t-130 49z" glyph-name="florin" unicode="ƒ"/><glyph d="M379 1309l182 -262h-147l-119 170l-123 -170h-145l184 262h168z" glyph-name="circumflex" horiz-adv-x="587" unicode="ˆ"/><glyph d="M414 1309h147l-182 -262h-168l-184 262h145l123 -170z" glyph-name="caron" horiz-adv-x="587" unicode="ˇ"/><glyph d="M315 1030q-168 0 -243 139q-27 45 -45 140h116q31 -145 165 -145t169 145h117l-6 -25q-63 -254 -273 -254z" glyph-name="breve" horiz-adv-x="620" unicode="˘"/><glyph d="M158 1323l131 -149l-131 -148l-131 148z" glyph-name="dotaccent" horiz-adv-x="315" unicode="˙"/><glyph d="M397 1173.5q0 -75.5 -55 -131t-130 -55.5t-132 53q-53 57 -53 131t53 132q55 55 130 55t132 -53q55 -56 55 -131.5zM313 1172q0 42 -29.5 72t-71.5 30t-73 -29t-31 -73t30 -72.5t73 -28.5t72.5 29.5t29.5 71.5z" glyph-name="ring" horiz-adv-x="421" unicode="˚"/><glyph d="M199 -332q-72 0 -123 47q-49 49 -49 128t125 180l20 16h94q-113 -111 -112 -170q0 -90 98 -90q64 0 166 80l41 -52q-139 -139 -260 -139z" glyph-name="ogonek" horiz-adv-x="485" unicode="˛"/><glyph d="M482 1059q-64 0 -160 35t-119 34q-76 0 -84 -81h-92q25 201 192 200q57 0 131 -28l56 -23q43 -16 67 -16q72 0 90 86h92q-4 -88 -56.5 -147.5t-116.5 -59.5z" glyph-name="tilde" horiz-adv-x="681" unicode="˜"/><glyph d="M535 1309h202l-239 -262h-127zM190 1309h201l-239 -262h-125z" glyph-name="hungarumlaut" horiz-adv-x="761" unicode="˝"/><glyph d="M1556 0h-1462l686 1366h90zM770 778l-258 -514h518z" glyph-name="Delta" horiz-adv-x="1650" unicode="Δ"/><glyph d="M1556 0h-1462l686 1366h90zM770 778l-258 -514h518z" glyph-name="Delta" horiz-adv-x="1650" unicode="∆"/><glyph d="M831 1157q-164 0 -258 -98t-94 -279t123 -282q53 -45 123 -66v-432h-631v231h410q-10 0 -50 16.5t-102.5 59.5t-119 102.5t-97.5 161t-41 205.5q0 233 160 406q207 211 575 212t576 -212q160 -170 160 -406q0 -104 -41 -205.5t-98.5 -161t-120 -102.5t-102.5 -59.5 t-50 -16.5h412v-231h-631v432q134 38 209 174q37 70 37 187q0 168 -92.5 266t-256.5 98z" glyph-name="Omega" horiz-adv-x="1658" unicode="Ω"/><glyph d="M831 1157q-164 0 -258 -98t-94 -279t123 -282q53 -45 123 -66v-432h-631v231h410q-10 0 -50 16.5t-102.5 59.5t-119 102.5t-97.5 161t-41 205.5q0 233 160 406q207 211 575 212t576 -212q160 -170 160 -406q0 -104 -41 -205.5t-98.5 -161t-120 -102.5t-102.5 -59.5 t-50 -16.5h412v-231h-631v432q134 38 209 174q37 70 37 187q0 168 -92.5 266t-256.5 98z" glyph-name="Omega" horiz-adv-x="1658" unicode="Ω"/><glyph d="M408 647q-144 -11 -199 -57l-115 188q25 29 78 60q115 59 272 59h564q179 0 254 59l114 -188q-20 -27 -59 -49q-70 -49 -205 -66v-329q0 -98 98 -99q50 0 88 19v-221q-74 -46 -188 -46q-113 0 -201 79t-88 239v354h-123v-360q0 -141 -87 -226.5t-221 -85.5t-204.5 80 t-70.5 228v65h188v-57q0 -68 52 -68t53 80v342z" glyph-name="pi" horiz-adv-x="1470" unicode="π"/><glyph d="M119 596h993l-55 -127h-994z" glyph-name="endash" unicode="–"/><glyph d="M182 596h2040l-55 -127h-2040z" glyph-name="emdash" horiz-adv-x="2349" unicode="—"/><glyph d="M182 596h2040l-55 -127h-2040z" glyph-name="afii00208" horiz-adv-x="2349" unicode="―"/><glyph d="M414 1481h2q-68 -73 -68 -181t62 -190l-189 -115q-49 45 -49 167t74 220.5t168 98.5z" glyph-name="quoteleft" horiz-adv-x="587" unicode="‘"/><glyph d="M416 1312q0 -120 -74 -218.5t-168 -98.5h-2q66 71 66 181t-62 190l191 115q49 -49 49 -169z" glyph-name="quoteright" horiz-adv-x="587" unicode="’"/><glyph d="M262 160q0 -118 -72 -218t-163 -100h-11q68 68 68 180t-61 191l190 115q49 -49 49 -168z" glyph-name="quotesinglbase" horiz-adv-x="278" unicode="‚"/><glyph d="M616 1481h5q-68 -67 -68 -179t61 -192l-188 -115q-51 45 -51 167t73.5 220.5t167.5 98.5zM293 1481h2q-68 -73 -68 -181t62 -190l-189 -115q-51 45 -51 167t74 220.5t170 98.5z" glyph-name="quotedblleft" horiz-adv-x="729" unicode="“"/><glyph d="M678 1311q0 -123 -74 -219t-168 -97h-2q66 69 66 181t-60 190l189 115q49 -47 49 -170zM354 1314q0 -122 -73.5 -220.5t-167.5 -98.5h-4q67 67 67 179t-61 192l188 115q51 -45 51 -167z" glyph-name="quotedblright" horiz-adv-x="729" unicode="”"/><glyph d="M621 165q0 -119 -72 -221t-164 -102h-10q67 68 67 180t-61 191l188 115q52 -45 52 -163zM295 160q0 -118 -72 -218t-164 -100h-10q68 68 68 180t-62 191l191 115q49 -49 49 -168z" glyph-name="quotedblbase" horiz-adv-x="669" unicode="„"/><glyph d="M1028 938v-203l-393 43l80 -184l-90 -948h-76l-90 948l80 184l-392 -43v203l394 -82l-68 510h227l-67 -510z" glyph-name="dagger" unicode="†"/><glyph d="M1028 184v-204l-395 83l69 -509h-227l66 509l-394 -83v204l392 -43l-62 181l72 139l-72 135l62 182l-392 -43v203l394 -82l-68 510h227l-67 -510l395 82v-203l-393 43l67 -182l-73 -137l73 -137l-67 -181z" glyph-name="daggerdbl" unicode="‡"/><glyph d="M518 683q0 -83 -57.5 -140.5t-140.5 -57.5q-83 1 -140 57t-57 138t55 141q59 59 142 59t140.5 -57t57.5 -140z" glyph-name="bullet" horiz-adv-x="641" unicode="•"/><glyph d="M1460 317l150 -170l-150 -170l-149 170zM881 317l149 -170l-149 -170l-150 170zM301 317l150 -170l-150 -170l-149 170z" glyph-name="ellipsis" horiz-adv-x="1761" unicode="…"/><glyph d="M2122 327.5q0 -202.5 -58 -272.5q-63 -82 -224 -82t-221 79t-60 276q0 198 60 276t221 78t224 -82q58 -70 58 -272.5zM791 1038q0 -200 -63 -278t-220.5 -78t-219.5 77t-62 277t61 279q61 78 221 78t225 -84q58 -70 58 -271zM1098 1366h88l-586 -1366h-84zM1470 327.5 q0 -196.5 -60 -275.5t-222 -79t-225 82q-57 70 -57 272t57 273q61 82 224 82t223 -79t60 -275.5zM1843 31q94 1 122 63t28 238t-31 235q-27 57 -120 57t-124 -57q-28 -61 -28 -239t28 -240q31 -57 125 -57zM659 1036q0 172 -26 240q-29 59 -123 59t-125 -57 q-29 -60 -29 -240t29 -241q31 -57 126 -57t122 61q26 63 26 235zM1339 328q0 172 -26 235q-27 61 -123 61t-123 -57q-31 -57 -31 -237t28 -240t125 -59q97 0 124 61q26 64 26 236z" glyph-name="perthousand" horiz-adv-x="2349" unicode="‰"/><glyph d="M309 805h154l-260 -379l258 -381h-150l-268 383z" glyph-name="guilsinglleft" horiz-adv-x="505" unicode="‹"/><glyph d="M197 805l266 -377l-268 -383h-150l260 381l-262 379h154z" glyph-name="guilsinglright" horiz-adv-x="505" unicode="›"/><glyph d="M555 1366h86l-586 -1366h-82z" glyph-name="fraction" horiz-adv-x="614" unicode="⁄"/><glyph d="M711 -27q-281 0 -414 158q-125 145 -137 469h-140l25 82h113l2 74h-140l25 84h121q20 295 144 424t386 129q109 1 199 -11t138 -12t83 21v-416q-96 192 -151 244q-101 100 -265 100t-236 -109t-85 -370h326l-23 -84h-305l-2 -41v-33h287l-25 -82h-258q8 -94 14 -137 q55 -340 373 -340q238 0 385 131l2 -12q0 -119 -124 -194t-318 -75z" glyph-name="Euro" unicode="€"/><glyph d="M758 815q0 -27 24 -51h-120q43 41 61 197l29 225q6 49 6 78q0 66 -37 102h162l153 -426l160 426h152q-35 -31 -35 -98q0 -4 4 -58l33 -299q12 -116 53 -147h-174q23 27 22 74l-2 49l-41 379l-196 -512h-19l-188 512l-41 -369q-6 -55 -6 -82zM385 1325h-4v-432 q0 -37 4 -70t39 -59h-188q20 14 31 32t12 97v432q-84 0 -129 -16q-31 -6 -41 -13q-35 -12 -68 -39l49 109h543l-78 -102q-29 61 -170 61z" glyph-name="trademark" horiz-adv-x="1499" unicode="™"/><glyph d="M1610 664h-1225v-420q197 -228 481 -228t490 230h94q-102 -129 -259 -204t-333 -75q-309 0 -527 209t-218 505t219 506t528 210t529.5 -214t220.5 -519zM1331 698v414q-193 238 -469 238t-477 -238v-414h946z" glyph-name="estimated" horiz-adv-x="1722" unicode="℮"/><glyph d="M524 846q104 0 168 -30t109 -64q-37 117 -115 194q-74 78 -192 78q-49 0 -99 -16l-39 -15l-47 199l68 22q78 25 181 25q102 0 208 -38t196 -123t150 -223q59 -138 59 -337q0 -246 -158.5 -393.5t-416.5 -147.5q-209 0 -355.5 118t-146.5 337q0 176 122 295t308 119z M646 651q-104 0 -160 -67.5t-56 -160.5t53 -155t158 -63q105 0 151 87t46 216l-2 61q-86 82 -190 82z" glyph-name="partialdiff" horiz-adv-x="1265" unicode="∂"/><glyph d="M1714 1552v-303h-223v-1497h-375v1497h-424v-1497h-375v1497h-223v303h1620z" glyph-name="product" horiz-adv-x="1808" unicode="∏"/><glyph d="M94 1552h1422v-303h-842l424 -520v-8l-488 -666h930v-301h-1446v183l565 772l-565 694v149z" glyph-name="summation" horiz-adv-x="1634" unicode="∑"/><glyph d="M555 1366h86l-586 -1366h-82z" glyph-name="uni2215" horiz-adv-x="614" unicode="∕"/><glyph d="M246 852l149 -170l-149 -168l-150 168z" glyph-name="uni2219" horiz-adv-x="491" unicode="∙"/><glyph d="M150 201l-56 121l375 176l154 -330l321 1405h184l-434 -1897h-190l-266 564z" glyph-name="radical" horiz-adv-x="1220" unicode="√"/><glyph d="M1320 920q150 0 269 -105t119 -281t-115.5 -290.5t-285.5 -114.5q-121 0 -214.5 52t-191.5 151q-184 -203 -403 -203q-164 0 -284 105.5t-120 280.5t116 290t288 115q213 0 411 -199q73 79 167 139t244 60zM479 383q131 0 248 123q-141 131 -266 131q-57 0 -103 -32 t-45 -92q0 -60 46 -95t120 -35zM1341 414q55 0 103 30q45 32 45 92t-45 95t-119 35q-129 0 -246 -123q125 -129 262 -129z" glyph-name="infinity" horiz-adv-x="1802" unicode="∞"/><glyph d="M782 1296v-1093q0 -281 -135 -415t-352 -134q-102 0 -151.5 36t-49.5 87t29 81.5t79 30.5t78.5 -36.5t28.5 -98.5q104 0 105 174v1094q0 281 135 416t352 135q100 0 150.5 -37t50.5 -88t-29 -82t-79 -31t-79.5 37t-29.5 98q-103 0 -103 -174z" glyph-name="integral" horiz-adv-x="1193" unicode="∫"/><glyph d="M385 436q70 0 184.5 -30.5t174.5 -30.5t104 41q23 20 35 43l137 -144q-20 -43 -62 -84q-90 -82 -229 -81q-70 0 -184.5 31.5t-170.5 31.5t-108 -43q-21 -16 -35 -43l-137 145q23 47 62 82q90 82 229 82zM385 801q70 0 184.5 -31t172.5 -31q58 1 93 31q36 30 48 53 l137 -143q-20 -43 -62 -84q-90 -82 -229 -82q-70 0 -184.5 30.5t-172.5 30.5t-106 -43q-25 -22 -35 -40l-137 145q20 45 62 82q90 82 229 82z" glyph-name="approxequal" horiz-adv-x="1114" unicode="≈"/><glyph d="M94 485v226h522l115 172h180l-114 -172h170v-226h-318l-59 -92h377v-225h-525l-114 -174h-181l115 174h-168v225h316l59 92h-375z" glyph-name="notequal" horiz-adv-x="1060" unicode="≠"/><glyph d="M739 1464l375 -782l-375 -782h-270l-375 782l375 782h270zM604 1208l-239 -526l239 -526l240 526z" glyph-name="lozenge" horiz-adv-x="1208" unicode="◊"/><glyph d="M1061 41q-61 0 -113 47q53 -80 74 -96q-35 -12 -59.5 -12t-67.5 14q2 -12 18 -33q-5 -2 -27 -2t-38 16q2 -14 18.5 -35.5t16.5 -23.5q-20 -4 -46 -4t-65 20.5t-55 40.5q12 -43 74 -143q-12 -2 -33 -2q-106 0 -172 94q0 -57 53 -176q-61 2 -113 53q29 -51 62 -82 q-29 -14 -70 -14t-78 37q0 -6 11 -27l12 -24q-6 -2 -23 -2q-67 0 -108 41q-23 -10 -49 -11q-88 0 -142 111q-18 39 -28.5 110.5t-10.5 108.5q0 113 34 181t50.5 176t87.5 212q-49 40 -49 104t30 120.5t67 79.5q-23 12 -68 12t-129 -19q0 51 51 116t107 79q-70 59 -74 201 q16 -16 47 -37q-23 104 -23 116.5t3 14.5q16 -39 77 -68q-33 108 -22 146q14 -27 53 -57.5t62 -34.5q-10 61 -11 86q0 82 47 106q0 -29 19.5 -68.5t48.5 -54.5q8 47 131 115l-12 -88q0 -18 8 -27q14 8 37.5 44t23.5 46q25 -14 31 -92l2 -24q18 0 43 11t29 21q0 -14 -6 -53 l-6 -39q82 25 98 41q0 -37 -35 -120t-88 -91q84 -43 162 -162.5t84 -279.5q3 -94 35 -211t34 -131q25 -131 93 -215q-74 -25 -117 2q-8 -8 -19 -39q0 -39 58 -121q-25 -4 -35 -4zM293 -244h8q-45 33 -73.5 151t-28.5 220t19 139t19 72t-12 49l2 -20q0 -29 -33.5 -114 t-39.5 -125t-6 -121t37.5 -166t107.5 -85zM903 696l-6 -309q0 -207 33 -258l14 31q45 -70 86 -80q-51 57 -68.5 226t-26.5 314.5t-38 157.5q6 -23 6 -82zM682 866q0 10 -1 26.5t-1 20.5q0 -16 -19.5 -62t-27.5 -48l-4 61v19q-12 -29 -43 -77t-51 -65q0 16 12 50 q-49 -45 -178 -160l-9 28q-82 -51 -81 -206q0 -51 8 -97q-37 -45 -37 -135t11 -157.5t22 -83.5l-29 8v-4q2 -2 2 -4q63 -233 156 -256q-49 74 -82 181t-33 141t4 46q10 -18 26.5 -52t34.5 -40q8 -76 59.5 -168t100.5 -98q-43 47 -103.5 223t-60.5 306t35 202q-2 -10 -2 -124 t40 -275.5t136 -253.5q-25 53 -44 173.5t-19 187.5t2 83q2 -47 29.5 -98.5t50.5 -69.5q-4 -20 -4 -29q0 -61 47 -117.5t90 -68.5q-135 238 -135 479q0 111 37 187q4 -25 13 -163.5t32 -166.5v29q0 57 20 79q6 -25 15.5 -95t18.5 -117.5t34.5 -94.5t64.5 -59q-82 127 -82 342 t80 405l-4 -45q0 -16 8 -26q-16 -61 -16 -97t6 -55q20 -41 20 -94t-16 -87t-16 -101q0 -139 59 -187q-8 33 -8 64v14q25 -59 104 -70q-104 109 -104 275l12 178l-8 74l10 166q0 184 -98 337q-43 70 -68.5 88.5t-68.5 22.5q106 -55 106 -258q2 6 10.5 17.5t10.5 15.5 q22 -33 22 -126t-22 -140q-6 55 -39 151q0 -49 -25.5 -108.5t-58.5 -73.5l-10 84q59 31 59 149zM326 746q0 20 25.5 75.5t25.5 71.5q-35 -12 -77 -82.5t-17 -128.5l51 23q-8 21 -8 41zM391 756q0 14 13.5 47t13.5 37q-16 -8 -34.5 -40t-18.5 -48t4 -23l24 12q-2 1 -2 15z M453.5 1203.5q-73.5 -53.5 -103.5 -83.5q16 6 99.5 63.5t193.5 57.5q-23 16 -69.5 16t-120 -53.5zM561 860h10q20 20 41 66t21 72t-4 34q-2 -43 -23.5 -86t-42.5 -55q-53 -26 -53 -49q29 18 51 18zM391 952q-1 20 -57 20t-76 -11q74 -18 119 -19q14 4 14 10zM401 1019 q-1 -9 11 -21t20 -11.5t8 8.5q0 23 -37 35q-2 -2 -2 -11zM182 967q41 25 90 25t75 -2.5t30 -2.5q-31 45 -49 55q0 16 22 54q-53 -4 -105.5 -44t-62.5 -85zM614 1101q0 24 -20 36q4 -4 4 -19q0 -45 -37 -65l6 -17q18 4 32.5 22.5t14.5 42.5zM545 1108q0 -18 -16.5 -32.5 t-28.5 -14.5l20 -6h2q41 10 41 51q0 8 -4 16q-12 8 -14 8t-2 -6l1 -2zM512 1112q0 16 -22 16t-23 -20q6 -23 17 -25t14.5 0t7.5 10.5t4 10.5q2 4 2 8zM524 936q24 0 25 22q0 14 -24 14t-23 -16q-2 -20 22 -20zM454.5 905.5q0.5 -16.5 19.5 -16.5t19.5 16.5t-19.5 16.5 t-19.5 -16.5zM979 743q0 104 -67.5 236.5t-170.5 171.5q88 -123 97 -150l14 5q59 -59 106 -234q0 -360 66 -561l18 47q56 -33 76 -33q-100 129 -143 477q4 12 4 41z" glyph-name="uniF102" horiz-adv-x="1275" unicode=""/><glyph d="M655 385v158q0 101 -14 175t-72 116l305 90q-10 -68 -10 -234v-305q0 -127 6 -223t68 -162h-356q33 33 53 86t20 299zM620.5 1452q38.5 0 69.5 8v-250q-104 193 -227 193q-82 0 -107 -64q-14 -31 -14 -168v-270h82q109 0 176 8l-47 -90q-92 16 -164 17h-47v-451 q0 -166 4 -221q2 -92 68 -164h-357q68 70 71 174t3 211v451h-127l33 65h94v240q0 137 9 173t57 79q74 68 217 67l88 -2q80 -6 118.5 -6z" glyph-name="uniFB01" horiz-adv-x="993" unicode="ﬁ"/><glyph d="M618 1452q153 0 269 29v-11q0 -25 -2 -49l-4 -75l-4 -113v-848q0 -127 6 -222t67 -163h-356q41 43 51 74q23 51 23 311v700q0 113 -15 172q-31 145 -182 146q-102 0 -121 -90q-8 -33 -8 -142v-270h82q109 0 176 8l-47 -90q-92 16 -164 17h-47v-451q0 -166 4 -221 q2 -92 68 -164h-357q68 70 71 174t3 211v451h-127l33 65h94v240q0 137 9 173t57 79q74 68 229 67l88 -2q84 -6 104 -6z" glyph-name="uniFB02" horiz-adv-x="1005" unicode="ﬂ"/></font>
</defs>
</svg>
