<?xml version="1.0" encoding="utf-8"?>
<!-- Generator: Adobe Illustrator 18.0.0, SVG Export Plug-In . SVG Version: 6.00 Build 0)  -->
<!DOCTYPE svg PUBLIC "-//W3C//DTD SVG 1.1//EN" "http://www.w3.org/Graphics/SVG/1.1/DTD/svg11.dtd">
<svg version="1.1" id="Layer_1" xmlns="http://www.w3.org/2000/svg" xmlns:xlink="http://www.w3.org/1999/xlink" x="0px" y="0px"
	 viewBox="0 0 612 792" enable-background="new 0 0 612 792" xml:space="preserve">
<title>Fill 1</title>
<desc>Created with Sketch.</desc>
<g id="Page-1">
	<g id="Homepage" transform="translate(-386.000000, -73.000000)">
		<path id="Fill-1" fill="#B9AEBC" d="M950.4,673c0,3.4-3.4,6.8-6.8,6.8h-510c-3.4,0-6.8-3.4-6.8-6.8V265l224.4,258.4
			c10.2,10.2,23.8,17,37.4,17s27.2-6.8,37.4-17L950.4,265V673z M926.6,227.6L695.4,492.8c0,3.4,0,3.4-3.4,0L460.8,227.6H926.6z
			 M947,180H437c-27.2,0-51,23.8-51,51v442c0,27.2,23.8,51,51,51h510c27.2,0,51-23.8,51-51V231C998,203.8,974.2,180,947,180L947,180
			z"/>
	</g>
</g>
</svg>
