<?xml version="1.0" encoding="utf-8"?>
<!-- Generator: Adobe Illustrator 18.0.0, SVG Export Plug-In . SVG Version: 6.00 Build 0)  -->
<!DOCTYPE svg PUBLIC "-//W3C//DTD SVG 1.1//EN" "http://www.w3.org/Graphics/SVG/1.1/DTD/svg11.dtd">
<svg version="1.1" id="Layer_1" xmlns="http://www.w3.org/2000/svg" xmlns:xlink="http://www.w3.org/1999/xlink" x="0px" y="0px"
	 viewBox="0 0 18 17" enable-background="new 0 0 18 17" xml:space="preserve">
<title>Fill 1</title>
<desc>Created with Sketch.</desc>
<g id="Page-1">
	<g id="Homepage" transform="translate(-386.000000, -73.000000)">
		<path id="Fill-1" fill="#FFFFFF" d="M402.6,87.5c0,0.1-0.1,0.2-0.2,0.2h-15c-0.1,0-0.2-0.1-0.2-0.2v-12l6.6,7.6
			c0.3,0.3,0.7,0.5,1.1,0.5c0.4,0,0.8-0.2,1.1-0.5l6.6-7.6V87.5z M401.9,74.4l-6.8,7.8c0,0.1,0,0.1-0.1,0l-6.8-7.8H401.9z M402.5,73
			h-15c-0.8,0-1.5,0.7-1.5,1.5v13c0,0.8,0.7,1.5,1.5,1.5h15c0.8,0,1.5-0.7,1.5-1.5v-13C404,73.7,403.3,73,402.5,73L402.5,73z"/>
	</g>
</g>
</svg>
