<?xml version="1.0" encoding="utf-8"?>
<!-- Generator: Adobe Illustrator 18.0.0, SVG Export Plug-In . SVG Version: 6.00 Build 0)  -->
<!DOCTYPE svg PUBLIC "-//W3C//DTD SVG 1.1//EN" "http://www.w3.org/Graphics/SVG/1.1/DTD/svg11.dtd">
<svg version="1.1" id="Layer_1" xmlns="http://www.w3.org/2000/svg" xmlns:xlink="http://www.w3.org/1999/xlink" x="0px" y="0px"
	 viewBox="0 0 612 792" enable-background="new 0 0 612 792" xml:space="preserve">
<title>Fill 1</title>
<desc>Created with Sketch.</desc>
<g id="Page-1">
	<g id="Homepage" transform="translate(-330.000000, -73.000000)">
		<path id="Fill-1" fill="#B9AEBC" d="M798,267.4c-21.6,0-36,18-36,36c0,21.6,18,36,36,36c21.6,0,36-14.4,36-36
			C837.6,285.4,819.6,267.4,798,267.4 M736.8,469c0-54-46.8-100.8-100.8-100.8c-57.6,0-100.8,46.8-100.8,100.8
			c0,57.6,46.8,100.8,100.8,100.8C693.6,569.8,736.8,526.6,736.8,469 M794.4,469c0,86.4-72,158.4-158.4,158.4s-154.8-72-154.8-158.4
			s72-154.8,158.4-154.8C722.4,310.6,794.4,382.6,794.4,469 M884.4,469C888,469,888,469,884.4,469c0-43.2,0-86.4-3.6-129.6
			c0-18-3.6-39.6-14.4-57.6c-18-36-46.8-54-86.4-57.6c-25.2-3.6-54-3.6-79.2-3.6c-54,0-111.6,0-165.6,0c-18,0-39.6,0-57.6,3.6
			c-46.8,7.2-79.2,39.6-90,86.4c-3.6,25.2-3.6,50.4-7.2,75.6c0,43.2,0,90,0,133.2c0,32.4,0,61.2,3.6,93.6c0,18,7.2,36,14.4,54
			c18,32.4,46.8,50.4,82.8,54c25.2,3.6,54,3.6,79.2,3.6c54,0,108,0,165.6,0c18,0,39.6,0,57.6-3.6c46.8-7.2,79.2-39.6,90-86.4
			c3.6-25.2,3.6-46.8,7.2-72C888,526.6,884.4,497.8,884.4,469 M942,469c0,25.2,0,46.8,0,72c0,28.8,0,54-3.6,82.8
			c-7.2,75.6-57.6,129.6-129.6,147.6c-25.2,3.6-46.8,7.2-72,7.2c-54,0-108,0-162,0c-28.8,0-57.6,0-90-3.6
			c-79.2-7.2-133.2-61.2-147.6-136.8c-3.6-21.6-3.6-43.2-3.6-64.8c0-54,0-108,0-165.6c0-28.8,0-57.6,3.6-86.4
			c7.2-79.2,61.2-133.2,136.8-147.6c21.6-3.6,43.2-3.6,64.8-3.6c54,0,108,0,158.4,0c28.8,0,61.2,0,90,3.6
			c75.6,7.2,129.6,57.6,147.6,129.6c3.6,21.6,7.2,46.8,7.2,68.4C942,400.6,942,436.6,942,469L942,469"/>
	</g>
</g>
</svg>
