<?xml version="1.0" encoding="utf-8"?>
<!-- Generator: Adobe Illustrator 18.0.0, SVG Export Plug-In . SVG Version: 6.00 Build 0)  -->
<!DOCTYPE svg PUBLIC "-//W3C//DTD SVG 1.1//EN" "http://www.w3.org/Graphics/SVG/1.1/DTD/svg11.dtd">
<svg version="1.1" id="Layer_1" xmlns="http://www.w3.org/2000/svg" xmlns:xlink="http://www.w3.org/1999/xlink" x="0px" y="0px"
	 viewBox="0 0 17 17" enable-background="new 0 0 17 17" xml:space="preserve">
<title>Fill 1</title>
<desc>Created with Sketch.</desc>
<g id="Page-1">
	<g id="Homepage" transform="translate(-330.000000, -73.000000)">
		<path id="Fill-1" fill="#FFFFFF" d="M343,75.9c-0.6,0-1,0.5-1,1c0,0.6,0.5,1,1,1c0.6,0,1-0.4,1-1C344.1,76.4,343.6,75.9,343,75.9
			 M341.3,81.5c0-1.5-1.3-2.8-2.8-2.8c-1.6,0-2.8,1.3-2.8,2.8c0,1.6,1.3,2.8,2.8,2.8C340.1,84.3,341.3,83.1,341.3,81.5 M342.9,81.5
			c0,2.4-2,4.4-4.4,4.4c-2.4,0-4.3-2-4.3-4.4c0-2.4,2-4.3,4.4-4.3C340.9,77.1,342.9,79.1,342.9,81.5 M345.4,81.5
			C345.5,81.5,345.5,81.5,345.4,81.5c0-1.2,0-2.4-0.1-3.6c0-0.5-0.1-1.1-0.4-1.6c-0.5-1-1.3-1.5-2.4-1.6c-0.7-0.1-1.5-0.1-2.2-0.1
			c-1.5,0-3.1,0-4.6,0c-0.5,0-1.1,0-1.6,0.1c-1.3,0.2-2.2,1.1-2.5,2.4c-0.1,0.7-0.1,1.4-0.2,2.1c0,1.2,0,2.5,0,3.7
			c0,0.9,0,1.7,0.1,2.6c0,0.5,0.2,1,0.4,1.5c0.5,0.9,1.3,1.4,2.3,1.5c0.7,0.1,1.5,0.1,2.2,0.1c1.5,0,3,0,4.6,0c0.5,0,1.1,0,1.6-0.1
			c1.3-0.2,2.2-1.1,2.5-2.4c0.1-0.7,0.1-1.3,0.2-2C345.5,83.1,345.4,82.3,345.4,81.5 M347,81.5c0,0.7,0,1.3,0,2c0,0.8,0,1.5-0.1,2.3
			c-0.2,2.1-1.6,3.6-3.6,4.1c-0.7,0.1-1.3,0.2-2,0.2c-1.5,0-3,0-4.5,0c-0.8,0-1.6,0-2.5-0.1c-2.2-0.2-3.7-1.7-4.1-3.8
			c-0.1-0.6-0.1-1.2-0.1-1.8c0-1.5,0-3,0-4.6c0-0.8,0-1.6,0.1-2.4c0.2-2.2,1.7-3.7,3.8-4.1c0.6-0.1,1.2-0.1,1.8-0.1c1.5,0,3,0,4.4,0
			c0.8,0,1.7,0,2.5,0.1c2.1,0.2,3.6,1.6,4.1,3.6c0.1,0.6,0.2,1.3,0.2,1.9C347,79.6,347,80.6,347,81.5C347,81.5,347,81.5,347,81.5"/>
	</g>
</g>
</svg>
