<?xml version="1.0" encoding="UTF-8"?>
<svg width="17px" height="17px" viewBox="0 0 17 17" version="1.1" xmlns="http://www.w3.org/2000/svg" xmlns:xlink="http://www.w3.org/1999/xlink">
    <!-- Generator: Sketch 42 (36781) - http://www.bohemiancoding.com/sketch -->
    <title>Fill 1</title>
    <desc>Created with Sketch.</desc>
    <defs></defs>
    <g id="Page-1" stroke="none" stroke-width="1" fill="none" fill-rule="evenodd">
        <g id="Homepage" transform="translate(-330.000000, -73.000000)" fill="#28271F">
            <path d="M343.028912,75.9414053 C342.46238,75.9419616 342.005823,76.3956496 342.004476,76.9593704 C342.003129,77.5244673 342.457666,77.9871149 343.017258,77.9902478 C343.594009,77.9934685 344.050595,77.544114 344.053406,76.9705552 C344.056246,76.3932194 343.605926,75.9408197 343.028912,75.9414053 M341.323256,81.4938197 C341.323139,79.9526861 340.051436,78.672639 338.519321,78.6714971 C336.947795,78.6703259 335.671613,79.9350012 335.671203,81.4939661 C335.670764,83.0494174 336.94352,84.32355 338.497683,84.32355 C340.052725,84.3235207 341.323344,83.0510278 341.323256,81.4938197 M342.866205,81.5046824 C342.866117,83.918642 340.902917,85.8673481 338.471888,85.866499 C336.073856,85.8656499 334.127171,83.894457 334.128254,81.4681414 C334.129308,79.0657181 336.102931,77.1265571 338.54497,77.1285481 C340.914512,77.1304513 342.866263,79.1070316 342.866205,81.5046824 M345.44334,81.5019887 C345.454671,81.501813 345.466032,81.5016081 345.477363,81.5014324 C345.449459,80.2924762 345.429813,79.0832566 345.389875,77.8747103 C345.37178,77.3270933 345.267018,76.7898999 345.024817,76.2918825 C344.540004,75.2949402 343.698947,74.7909206 342.634134,74.6673605 C341.905101,74.5827717 341.16661,74.5542533 340.431984,74.5487195 C338.895535,74.5371833 337.358676,74.5475775 335.822286,74.5698593 C335.278182,74.5777356 334.72957,74.6113486 334.192406,74.6940636 C332.867151,74.8981133 331.988674,75.7650833 331.711776,77.0768696 C331.566696,77.7641504 331.566637,78.4623233 331.555716,79.157539 C331.536421,80.3867274 331.534254,81.6165013 331.546639,82.8458068 C331.555218,83.6984005 331.587338,84.5513163 331.633717,85.4027095 C331.661738,85.9169771 331.797566,86.4136182 332.053616,86.8651981 C332.562789,87.7632923 333.373191,88.2187956 334.36905,88.3284185 C335.108536,88.4098159 335.856397,88.4405596 336.60089,88.4462984 C338.117839,88.4580102 339.635168,88.4475574 341.151999,88.4251877 C341.701022,88.4171066 342.253587,88.3799507 342.796783,88.301979 C344.09876,88.1150578 345.013368,87.2226438 345.281423,85.9392296 C345.420999,85.2709219 345.424045,84.5928056 345.439124,83.9168266 C345.457043,83.1122515 345.44334,82.3069444 345.44334,81.5019887 M346.994604,81.5052094 C346.994604,82.1589651 347.008951,82.81316 346.990856,83.466418 C346.969951,84.2208956 346.96061,84.9791211 346.875817,85.7277428 C346.633733,87.8653318 345.297761,89.3581833 343.242302,89.7951233 C342.580875,89.9357534 341.908761,89.9641547 341.236705,89.970889 C339.734484,89.9859973 338.232029,90.0014276 336.729867,89.9894523 C335.912174,89.9829229 335.090178,89.9639204 334.278341,89.8751446 C332.066294,89.6332069 330.533681,88.2149014 330.175298,86.0654248 C330.074811,85.4628499 330.038182,84.8449032 330.027641,84.2330467 C330.001377,82.711589 329.993618,81.1894871 330.005271,79.6678538 C330.011391,78.8696909 330.031242,78.0671947 330.119169,77.2748877 C330.366729,75.0443066 331.800728,73.5290269 333.932842,73.1750068 C334.535504,73.0749583 335.153393,73.0387687 335.765278,73.0278766 C337.247706,73.0014957 338.730837,72.9933267 340.213441,73.0055656 C341.05075,73.0124463 341.892569,73.0290478 342.723701,73.1201953 C344.860236,73.3545202 346.355225,74.6927167 346.794946,76.7491719 C346.93016,77.381612 346.960698,78.0242707 346.968165,78.6670466 C346.979174,79.6129837 346.971005,80.5591552 346.971005,81.5052387 C346.978881,81.5052094 346.986757,81.5052094 346.994604,81.5052094" id="Fill-1"></path>
        </g>
    </g>
</svg>