<?xml version="1.0" encoding="utf-8"?>
<!-- Generator: Adobe Illustrator 18.0.0, SVG Export Plug-In . SVG Version: 6.00 Build 0)  -->
<!DOCTYPE svg PUBLIC "-//W3C//DTD SVG 1.1//EN" "http://www.w3.org/Graphics/SVG/1.1/DTD/svg11.dtd">
<svg version="1.1" id="Layer_1" xmlns="http://www.w3.org/2000/svg" xmlns:xlink="http://www.w3.org/1999/xlink" x="0px" y="0px"
	 viewBox="0 0 19 15" enable-background="new 0 0 19 15" xml:space="preserve">
<title>twitter</title>
<desc>Created with Sketch.</desc>
<g id="Page-1">
	<g id="Homepage" transform="translate(-358.000000, -74.000000)">
		<path id="twitter" fill="#FFFFFF" d="M376.5,75.8c-0.7,0.3-1.4,0.5-2.2,0.6c0.8-0.5,1.4-1.2,1.7-2.1c-0.7,0.4-1.5,0.7-2.4,0.9
			c-0.7-0.7-1.7-1.2-2.8-1.2c-2.1,0-3.8,1.7-3.8,3.8c0,0.3,0,0.6,0.1,0.9c-3.1-0.2-5.9-1.6-7.8-3.9c-0.3,0.6-0.5,1.1-0.5,1.8
			c0,1.3,0.7,2.5,1.7,3.1c-0.6,0-1.2-0.2-1.7-0.5v0c0,1.8,1.3,3.4,3,3.7c-0.3,0.1-0.7,0.1-1,0.1c-0.2,0-0.5,0-0.7-0.1
			c0.5,1.5,1.9,2.6,3.5,2.6c-1.3,1-2.9,1.8-4.7,1.8c-0.3,0-0.6,0-0.9-0.1c1.7,1.1,3.7,1.5,5.8,1.5c7,0,10.8-5.8,10.8-10.8v-0.5
			C375.3,77.2,375.9,76.5,376.5,75.8z"/>
	</g>
</g>
</svg>
