<?xml version="1.0" encoding="utf-8"?>
<!-- Generator: Adobe Illustrator 18.0.0, SVG Export Plug-In . SVG Version: 6.00 Build 0)  -->
<!DOCTYPE svg PUBLIC "-//W3C//DTD SVG 1.1//EN" "http://www.w3.org/Graphics/SVG/1.1/DTD/svg11.dtd">
<svg version="1.1" id="Layer_1" xmlns="http://www.w3.org/2000/svg" xmlns:xlink="http://www.w3.org/1999/xlink" x="0px" y="0px"
	 viewBox="0 0 612 792" enable-background="new 0 0 612 792" xml:space="preserve">
<title>twitter</title>
<desc>Created with Sketch.</desc>
<g id="Page-1">
	<g id="Homepage" transform="translate(-358.000000, -74.000000)">
		<path id="twitter" fill="#B9AEBC" d="M953.9,286.4c-22.5,9.7-45.1,16.1-70.9,19.3c25.8-16.1,45.1-38.7,54.8-67.6
			c-22.5,12.9-48.3,22.5-77.3,29c-22.5-22.5-54.8-38.7-90.2-38.7c-67.6,0-122.4,54.8-122.4,122.4c0,9.7,0,19.3,3.2,29
			c-99.9-6.4-190-51.5-251.2-125.6c-9.7,19.3-16.1,35.4-16.1,58c0,41.9,22.5,80.5,54.8,99.9c-19.3,0-38.7-6.4-54.8-16.1l0,0
			c0,58,41.9,109.5,96.6,119.2c-9.7,3.2-22.5,3.2-32.2,3.2c-6.4,0-16.1,0-22.5-3.2c16.1,48.3,61.2,83.7,112.7,83.7
			c-41.9,32.2-93.4,58-151.4,58c-9.7,0-19.3,0-29-3.2c54.8,35.4,119.2,48.3,186.8,48.3c225.5,0,347.9-186.8,347.9-347.9v-16.1
			C915.2,331.5,934.6,308.9,953.9,286.4z"/>
	</g>
</g>
</svg>
