<?xml version="1.0" encoding="UTF-8"?>
<svg width="19px" height="15px" viewBox="0 0 19 15" version="1.1" xmlns="http://www.w3.org/2000/svg" xmlns:xlink="http://www.w3.org/1999/xlink">
    <!-- Generator: Sketch 42 (36781) - http://www.bohemiancoding.com/sketch -->
    <title>twitter</title>
    <desc>Created with Sketch.</desc>
    <defs></defs>
    <g id="Page-1" stroke="none" stroke-width="1" fill="none" fill-rule="evenodd">
        <g id="Homepage" transform="translate(-358.000000, -74.000000)" fill="#28271F">
            <path d="M376.461538,75.7668269 C375.776442,76.0733173 375.055288,76.280649 374.280048,76.3707933 C375.073317,75.9020433 375.668269,75.1538462 375.947716,74.2704327 C375.226562,74.703125 374.40625,75.0186298 373.558894,75.1899038 C372.846755,74.46875 371.864183,74 370.773438,74 C368.682091,74 366.996394,75.6856971 366.996394,77.7770433 C366.996394,78.0745192 367.014423,78.3810096 367.077524,78.6514423 C363.940505,78.4801683 361.164062,77.0558894 359.280048,74.766226 C358.964543,75.3251202 358.766226,75.9020433 358.766226,76.6051683 C358.766226,77.9032452 359.433293,79.0570913 360.460938,79.7421875 C359.838942,79.7241587 359.262019,79.5528846 358.748197,79.2734375 L358.748197,79.3185096 C358.748197,81.1574519 360.055288,82.6899038 361.786058,83.0324519 C361.461538,83.1225962 361.11899,83.1676683 360.776442,83.1676683 C360.542067,83.1676683 360.307692,83.140625 360.073317,83.0955529 C360.542067,84.5919471 361.957332,85.7097356 363.597957,85.7277644 C362.317909,86.7554087 360.668269,87.5216346 358.901442,87.5216346 C358.594952,87.5216346 358.297476,87.5036058 358,87.4585337 C359.667668,88.53125 361.677885,89 363.814303,89 C370.773438,89 374.577524,83.2307692 374.577524,78.2277644 L374.577524,77.7319712 C375.307692,77.2001202 375.947716,76.5420673 376.461538,75.7668269 Z" id="twitter"></path>
        </g>
    </g>
</svg>